<svg width="334" height="330" viewBox="0 0 334 330" fill="none" xmlns="http://www.w3.org/2000/svg">
<path d="M244.397 285.092C273.41 287.856 309.676 272.329 325.676 238.299C332.301 224.207 336.7 206.124 332.108 190.537C328.596 178.756 313.807 165.405 310.631 153.39C307.4 141.247 307.855 127.57 309.518 114.807C314.287 78.0927 287.748 20.8591 231.741 14.7446C189.266 10.1119 170.049 54.6559 133.902 60.7371C97.4184 66.8716 54.6414 30.0309 28.5477 60.7371C-3.85918 98.8394 11.3498 136.975 15.293 154.818C20.3594 177.741 -4.40835 203.901 0.697584 237.645C12.1216 313.075 95.1227 262.216 119.44 259.005C144.149 255.768 168.669 265.26 192.878 272.877C217.086 280.493 242.735 286.227 266.404 275.767L244.397 285.092Z" fill="#F5F9FE"/>
<path d="M167.01 328.742C250.962 328.742 319.02 324.77 319.02 319.871C319.02 314.972 250.962 311 167.01 311C83.0571 311 15 314.972 15 319.871C15 324.77 83.0571 328.742 167.01 328.742Z" fill="#F1F6FE"/>
<path d="M157.627 109.432H223.236C224.623 109.432 225.736 108.199 225.736 106.662V65.3928C225.736 63.8556 224.623 62.6224 223.236 62.6224H157.627C156.24 62.6224 155.128 63.8556 155.128 65.3928V106.662C155.128 108.182 156.256 109.432 157.627 109.432Z" fill="#5DA668"/>
<path d="M225.751 71.4573H155.128V79.5321H225.751V71.4573Z" fill="#0046B3"/>
<path d="M209.581 100.445H219.96C220.615 100.445 221.148 101.036 221.148 101.763C221.148 102.489 220.615 103.081 219.96 103.081H209.581C208.926 103.081 208.392 102.489 208.392 101.763C208.377 101.036 208.911 100.445 209.581 100.445Z" fill="#D1F5FF"/>
<path d="M193.609 100.445H203.988C204.643 100.445 205.177 101.036 205.177 101.763C205.177 102.489 204.643 103.081 203.988 103.081H193.609C192.954 103.081 192.421 102.489 192.421 101.763C192.405 101.036 192.954 100.445 193.609 100.445Z" fill="#D1F5FF"/>
<path d="M177.638 100.445H188.016C188.672 100.445 189.205 101.036 189.205 101.763C189.205 102.489 188.672 103.081 188.016 103.081H177.638C176.982 103.081 176.449 102.489 176.449 101.763C176.449 101.036 176.982 100.445 177.638 100.445Z" fill="#D1F5FF"/>
<path d="M161.666 100.445H172.044C172.7 100.445 173.233 101.036 173.233 101.763C173.233 102.489 172.7 103.081 172.044 103.081H161.666C161.011 103.081 160.477 102.489 160.477 101.763C160.477 101.036 161.011 100.445 161.666 100.445Z" fill="#D1F5FF"/>
<path d="M220.432 64.9874C221.164 64.9874 221.758 65.6462 221.758 66.4571V66.9639C221.758 67.7747 221.164 68.4335 220.432 68.4335C219.701 68.4335 219.106 67.7747 219.106 66.9639V66.4571C219.122 65.6462 219.716 64.9874 220.432 64.9874Z" fill="#D1F5FF"/>
<path d="M217.598 66.7105C217.598 67.6565 216.896 68.4335 216.043 68.4335H210.541C209.688 68.4335 208.987 67.6565 208.987 66.7105C208.987 65.7645 209.688 64.9874 210.541 64.9874H216.043C216.896 64.9874 217.598 65.7645 217.598 66.7105Z" fill="#D1F5FF"/>
<path d="M218.314 83.8735H211.212C210.069 83.8735 209.154 84.9039 209.154 86.154V92.9449C209.154 94.2118 210.084 95.2254 211.212 95.2254H218.314C219.457 95.2254 220.371 94.1949 220.371 92.9449V86.154C220.371 84.9039 219.457 83.8735 218.314 83.8735Z" fill="#FFBD73"/>
<path d="M82.5083 90.5123C84.2304 79.1773 99.9888 74.0588 99.684 81.4578L171.892 81.9308C176.891 81.9646 180.945 86.948 180.96 93.08L181.112 303.58C181.112 309.932 176.998 315.118 171.892 315.169L98.1752 315.861C97.718 316.926 96.8646 317.888 95.5082 318.699C87.0499 318.902 82.996 314.273 81.5177 309.037C81.03 307.635 80.7709 306.08 80.7861 304.442C81.0757 301.705 81.9749 93.1814 82.5083 90.5123Z" fill="#278C41"/>
<path d="M96.2854 318.733L180.899 318.125C186.172 318.091 190.455 312.753 190.439 306.232L190.119 89.7521C190.104 83.4512 185.913 78.3496 180.731 78.3158L97.7637 78.0117C92.5516 77.9948 88.2843 83.0964 88.2386 89.4312L86.7298 306.908C86.6841 313.479 90.9666 318.767 96.2854 318.733Z" fill="white"/>
<path d="M95.1272 317.162C95.4777 317.213 95.8434 317.246 96.194 317.23L180.777 316.52C185.319 316.486 189.022 311.807 189.022 306.114L188.733 89.8704C188.733 84.3803 185.075 79.8868 180.625 79.8699L97.657 79.4645C97.5199 79.4645 97.398 79.4645 97.2608 79.4814C95.1729 79.5827 93.2221 80.647 91.7591 82.4545C90.2655 84.2958 89.4426 86.7452 89.4273 89.3467L87.949 307.043C87.9033 312.196 90.9818 316.537 95.1272 317.162Z" fill="black"/>
<path d="M92.3382 90.4279L90.9056 307.364L186.203 306.739L185.959 90.4279H92.3382Z" fill="#5DA668"/>
<path d="M125.196 201.43H148.742C150.739 201.43 152.369 199.622 152.369 197.409C152.369 195.197 150.739 193.389 148.742 193.389H125.196C123.2 193.389 121.569 195.197 121.569 197.409C121.569 199.622 123.2 201.43 125.196 201.43Z" fill="#FF9F34"/>
<path d="M107.274 171.614H168.173C170.17 171.614 171.801 169.807 171.801 167.594C171.801 165.381 170.17 163.573 168.173 163.573H107.274C105.277 163.573 103.646 165.381 103.646 167.594C103.646 169.807 105.277 171.614 107.274 171.614Z" fill="white"/>
<path d="M107.274 184.537H168.173C170.17 184.537 171.801 182.73 171.801 180.517C171.801 178.304 170.17 176.496 168.173 176.496H107.274C105.277 176.496 103.646 178.304 103.646 180.517C103.646 182.73 105.277 184.537 107.274 184.537Z" fill="white"/>
<path d="M158.069 182.307C158.776 182.307 159.349 181.672 159.349 180.888C159.349 180.105 158.776 179.469 158.069 179.469C157.362 179.469 156.789 180.105 156.789 180.888C156.789 181.672 157.362 182.307 158.069 182.307Z" fill="#80B2FF"/>
<path d="M153.695 182.307C154.402 182.307 154.975 181.672 154.975 180.888C154.975 180.105 154.402 179.469 153.695 179.469C152.988 179.469 152.415 180.105 152.415 180.888C152.415 181.672 152.988 182.307 153.695 182.307Z" fill="#80B2FF"/>
<path d="M149.321 182.307C150.028 182.307 150.601 181.672 150.601 180.888C150.601 180.105 150.028 179.469 149.321 179.469C148.614 179.469 148.041 180.105 148.041 180.888C148.041 181.672 148.614 182.307 149.321 182.307Z" fill="#80B2FF"/>
<path d="M144.947 182.307C145.654 182.307 146.228 181.672 146.228 180.888C146.228 180.105 145.654 179.469 144.947 179.469C144.24 179.469 143.667 180.105 143.667 180.888C143.667 181.672 144.24 182.307 144.947 182.307Z" fill="#80B2FF"/>
<path d="M140.589 182.307C141.296 182.307 141.869 181.672 141.869 180.888C141.869 180.105 141.296 179.469 140.589 179.469C139.882 179.469 139.309 180.105 139.309 180.888C139.309 181.672 139.882 182.307 140.589 182.307Z" fill="#80B2FF"/>
<path d="M136.215 182.307C136.922 182.307 137.495 181.672 137.495 180.888C137.495 180.105 136.922 179.469 136.215 179.469C135.508 179.469 134.935 180.105 134.935 180.888C134.935 181.672 135.508 182.307 136.215 182.307Z" fill="#80B2FF"/>
<path d="M131.841 182.307C132.548 182.307 133.121 181.672 133.121 180.888C133.121 180.105 132.548 179.469 131.841 179.469C131.134 179.469 130.561 180.105 130.561 180.888C130.561 181.672 131.134 182.307 131.841 182.307Z" fill="#80B2FF"/>
<path d="M127.467 182.307C128.174 182.307 128.747 181.672 128.747 180.888C128.747 180.105 128.174 179.469 127.467 179.469C126.76 179.469 126.187 180.105 126.187 180.888C126.187 181.672 126.76 182.307 127.467 182.307Z" fill="#80B2FF"/>
<path d="M123.093 182.307C123.8 182.307 124.373 181.672 124.373 180.888C124.373 180.105 123.8 179.469 123.093 179.469C122.386 179.469 121.813 180.105 121.813 180.888C121.813 181.672 122.386 182.307 123.093 182.307Z" fill="#80B2FF"/>
<path d="M137.708 152.34C145.443 152.34 151.714 145.389 151.714 136.815C151.714 128.241 145.443 121.291 137.708 121.291C129.973 121.291 123.703 128.241 123.703 136.815C123.703 145.389 129.973 152.34 137.708 152.34Z" fill="white"/>
<path d="M137.678 136.19C136.306 136.19 135.057 135.447 134.249 134.332C133.654 133.521 133.304 132.474 133.304 131.308C133.304 128.622 135.27 126.409 137.678 126.409C140.132 126.409 142.097 128.622 142.097 131.308C142.097 132.474 141.747 133.521 141.153 134.332C140.345 135.464 139.08 136.19 137.678 136.19Z" fill="#01260E"/>
<path d="M129.921 144.924C129.921 148.015 145.481 148.015 145.481 144.924V141.326C144.871 136.41 131.186 136.19 129.921 141.326V144.924Z" fill="#01260E"/>
<path d="M164.927 179.79V182.645C164.927 183.135 168.219 183.135 168.219 182.645V179.79H168.006V179.571C168.006 178.692 167.366 177.983 166.573 177.983C165.781 177.983 165.141 178.692 165.141 179.571V179.79H164.927ZM167.488 179.79H165.644V179.571C165.644 178.996 165.964 178.523 166.573 178.523C167.183 178.523 167.488 179.013 167.488 179.571V179.79ZM166.131 180.804C166.131 180.534 166.345 180.297 166.588 180.297C166.832 180.297 167.046 180.534 167.046 180.804C167.046 180.99 166.954 181.142 166.817 181.226V182.054C166.817 182.206 166.726 182.307 166.588 182.307C166.451 182.307 166.345 182.206 166.345 182.054V181.226C166.223 181.142 166.131 180.99 166.131 180.804Z" fill="#4D4D4D"/>
<path d="M166.573 167.307C166.284 167.307 166.025 167.155 165.842 166.918C165.72 166.749 165.644 166.53 165.644 166.276C165.644 165.719 166.055 165.246 166.573 165.246C167.091 165.246 167.503 165.719 167.503 166.276C167.503 166.53 167.427 166.749 167.305 166.918C167.137 167.138 166.863 167.307 166.573 167.307Z" fill="#4D4D4D"/>
<path d="M164.943 169.148C164.943 169.807 168.25 169.807 168.25 169.148L168.234 168.388C168.097 167.357 165.217 167.307 164.958 168.388L164.943 169.148Z" fill="#4D4D4D"/>
<path d="M145.237 168.776H158.587C159.166 168.776 159.654 168.253 159.654 167.594C159.654 166.952 159.182 166.411 158.587 166.411H145.237C144.658 166.411 144.17 166.935 144.17 167.594C144.185 168.236 144.658 168.776 145.237 168.776Z" fill="#80B2FF"/>
<path d="M127.635 168.776H140.985C141.564 168.776 142.052 168.253 142.052 167.594C142.052 166.952 141.579 166.411 140.985 166.411H127.635C127.055 166.411 126.568 166.935 126.568 167.594C126.583 168.236 127.055 168.776 127.635 168.776Z" fill="#80B2FF"/>
<path d="M155.768 244.946V274.896C155.768 278.224 116.54 278.224 116.54 274.896V244.946H155.768Z" fill="white"/>
<path d="M136.154 261.281C138.83 261.281 141 259.027 141 256.247C141 253.467 138.83 251.213 136.154 251.213C133.477 251.213 131.307 253.467 131.307 256.247C131.307 259.027 133.477 261.281 136.154 261.281Z" fill="#01260E"/>
<path d="M136.093 271.4H136.215C137.282 271.4 138.135 270.454 138.135 269.271V257.801H134.173V269.271C134.173 270.437 135.041 271.4 136.093 271.4Z" fill="#01260E"/>
<path d="M119.984 242.8H123.946V240.79C123.946 233.796 129.418 228.12 136.154 228.12C142.89 228.12 148.361 233.813 148.361 240.79V242.8H152.324V240.79C152.324 231.533 145.069 223.999 136.154 223.999C127.238 223.999 119.984 231.533 119.984 240.79V242.8Z" fill="white"/>
<path d="M61.4463 182.662C51.4183 194.572 35.4313 204.319 18.3165 208.474C18.3165 209.741 18.286 216.769 18.1489 249.118C17.9812 292.279 55.0302 313.378 60.791 316.605C66.3689 313.767 103.89 292.701 104.073 249.54C104.21 217.191 104.226 210.163 104.241 208.897C87.1413 204.572 71.3677 194.656 61.4463 182.662Z" fill="white"/>
<path d="M61.3549 187.341C51.022 197.849 36.7114 206.109 20.9683 210.603L20.8159 249.101C20.7397 266.72 27.0644 282.65 39.5766 296.468C47.8063 305.54 56.4627 311.182 60.8519 313.699C61.0348 313.598 61.2482 313.479 61.4463 313.361V187.426C61.4158 187.409 61.3853 187.375 61.3549 187.341Z" fill="#278C41"/>
<path d="M61.4463 187.426V313.361C66.0184 310.726 74.309 305.286 82.2492 296.671C94.8833 282.988 101.33 267.109 101.391 249.49L101.543 210.991C85.8916 206.363 71.6877 198.001 61.4463 187.426Z" fill="#5DA668"/>
<path d="M92.9783 226.026C80.9995 228.07 64.6772 240.182 54.3749 254.76C52.927 247.885 46.4499 241.618 43.0514 240.249L32.7795 251.703C39.1956 254.912 46.2061 263.984 47.1358 273.292L57.4077 275.048C61.7359 265.572 72.907 242.902 95.1424 230.722C94.7309 228.847 93.1612 226.279 92.9783 226.026Z" fill="white"/>
<path d="M262.099 152.897L291.162 152.678L316.156 152.39L316.263 156.597C307.576 160.313 300.748 161.445 292.107 162.154C283.344 165.381 271.731 167.509 262.754 168.219C254.86 168.641 254.204 153.319 262.099 152.897Z" fill="#F7A594"/>
<path d="M274.977 151.985C271.487 151.917 261.169 150.701 254.723 151.546C248.901 154.198 250.349 165.448 253.016 167.222C253.016 167.543 264.309 171.04 275.754 167.324C277.476 165.077 276.897 154.215 274.977 151.985Z" fill="#112E59"/>
<path d="M277.293 167.763C275.48 168.472 273.773 168.928 272.508 168.354C271.746 168.388 270.908 151.529 271.67 151.495L276.425 151.242C277.933 151.157 278.802 167.678 277.293 167.763Z" fill="#1D498C"/>
<path d="M313.26 152.475C314.114 148.133 315.455 141.968 317.101 141.883C317.451 141.866 317.512 142.12 317.482 143.268C316.659 150.988 318.549 153.083 317.634 155.262C316.628 157.374 313.885 157.34 313.885 157.34C312.361 156.563 312.239 153.708 313.26 152.475Z" fill="#F7A594"/>
<path d="M315.226 151.546L316.933 145.937C316.933 145.937 318.046 146.157 317.817 147.644C317.589 149.13 317.299 150.718 317.299 150.718C317.299 150.718 318.64 153.928 317.573 155.245C316.506 156.58 314.678 155.279 315.226 151.546Z" fill="#F7A594"/>
<path d="M317.802 155.009L317.665 154.958C318.244 152.931 317.238 150.769 317.223 150.735L317.208 150.718V150.684C317.208 150.667 317.497 149.079 317.726 147.61C317.817 147.019 317.71 146.579 317.39 146.275C317.223 146.106 317.04 146.039 316.948 146.022L315.257 151.563L315.135 151.512L316.872 145.853L316.933 145.87C316.948 145.87 317.238 145.937 317.497 146.174C317.741 146.41 318 146.85 317.878 147.644C317.665 149.012 317.406 150.482 317.36 150.701C317.482 150.955 318.381 153.049 317.802 155.009Z" fill="#D97B69"/>
<path d="M314.48 148.877L314.342 148.843C314.403 148.573 315.851 142.305 317.086 141.816L317.131 141.951C315.958 142.407 314.495 148.809 314.48 148.877Z" fill="#D97B69"/>
<path d="M225.888 318.97H239.254C239.528 318.801 239.711 318.598 239.833 318.378C240.046 307.347 240.808 302.043 240.808 302.043L231.481 301.621L229.729 309.814C226.711 312.196 223.206 317.263 225.888 318.97Z" fill="#231F20"/>
<path d="M240.29 319.172H224.44C224.044 319.172 224.075 316.723 224.471 316.723L240.229 316.824C240.641 316.824 240.702 319.172 240.29 319.172Z" fill="#231F20"/>
<path d="M238.644 203.305C237.699 211.464 233.645 231.617 234.087 253.797C229.713 282.042 229.226 288.275 228.692 305.692L242.058 306.249C244.192 294.087 248.581 274.88 250.577 256.129C254.89 241.364 257.725 220.316 259.112 203.609C260.529 189.2 242.149 183.389 238.644 203.305Z" fill="#112E59"/>
<path d="M235.23 306.368H234.956C234.987 304.357 240.412 236.415 245.929 208.88L246.203 208.947C240.686 236.465 235.246 304.357 235.23 306.368Z" fill="#231F20"/>
<path d="M252.086 204.302C253.976 232.411 259.523 256.281 259.523 256.281C258.441 275.454 261.505 293.867 263.684 306.469L276.394 306.351C277.126 294.019 275.556 227.276 272.264 204.623C270.694 184.605 249.815 183.524 252.086 204.302Z" fill="#112E59"/>
<path d="M266.077 306.469C265.513 311.013 265.116 314.561 265.604 318.665L286.392 319.122C286.392 319.122 288.358 316.909 285.63 313.564C282.902 310.236 278.071 312.162 274.642 306.351L266.077 306.469Z" fill="#231F20"/>
<path d="M287.352 319.172H265.284C264.888 319.172 264.888 316.723 265.284 316.723L287.261 316.824C287.687 316.824 287.779 319.172 287.352 319.172Z" fill="#231F20"/>
<path d="M273.568 306.179L269.213 209.112L268.939 209.127L273.294 306.194L273.568 306.179Z" fill="#231F20"/>
<path d="M272.218 201.109L239.162 203.896C239.467 180.956 230.125 165.111 232.06 159.215C234.727 151.107 254.22 151.039 261.642 154.215C264.583 155.465 269.384 162.746 269.948 171.885C270.1 176.142 270.146 179.064 269.765 182.459C269.384 185.855 272.218 201.109 272.218 201.109Z" fill="#112E59"/>
<path d="M252.467 158.776C250.928 157.424 244.801 155.33 243.171 153.86L243.536 142.069L249.556 141.41C251.309 141.579 253.046 142.035 254.555 142.694L255.911 150.465L256.216 152.154C256.902 153.792 255.546 155.786 252.467 158.776Z" fill="#F7A594"/>
<path d="M245.563 144.721C246.508 146.326 250.471 150.465 255.911 150.448L254.738 143.724L245.563 144.721Z" fill="#E6836F"/>
<path d="M258.898 129.197C259.371 131.528 260.346 136.613 260.179 138.978C259.935 142.559 256.917 146.529 254.296 147.035C251.248 147.373 247.148 146.377 244.923 144.248C243.689 142.643 241.281 138.826 240.184 135.481C237.882 128.504 242.332 122.389 247.971 120.987C253.61 119.568 257.435 121.95 258.898 129.197Z" fill="#F7A594"/>
<path d="M242.089 140.076C240.915 137.778 242.47 136.849 244.192 138.64C243.902 136.917 242.119 131.832 243.689 130.16C245.472 128.2 253.305 129.062 257.527 124.196C257.527 124.196 254.387 116.561 244.085 121.071C232.441 127.896 242.089 140.076 242.089 140.076Z" fill="#4D261C"/>
<path d="M243.536 137.896C244.42 139.096 244.466 140.684 243.628 141.461C242.79 142.221 241.372 141.866 240.488 140.667C239.604 139.467 239.559 137.88 240.397 137.102C241.25 136.342 242.652 136.697 243.536 137.896Z" fill="#F7A594"/>
<path d="M257.618 124.501C256.308 124.061 240.717 130.92 241.128 132.204C241.128 132.204 252.421 132.254 260.179 128.352C264.415 126.207 257.618 124.501 257.618 124.501Z" fill="#112E59"/>
<path d="M238.766 133.319L257.71 124.467L257.07 121.494L236.998 130.666C237.395 131.68 238.08 132.795 238.766 133.319Z" fill="#1D498C"/>
<path d="M236.45 131.325C234.377 132.204 233.264 130.801 235.368 128.132C238.599 124.011 240.793 113.486 245.594 111.578C248.901 110.26 251.4 114.551 255.789 117.22C257.786 118.436 258.898 119.686 258.152 121.173C255.866 123.048 238.629 130.413 236.45 131.325Z" fill="#112E59"/>
<path d="M249.602 115.547C249.571 115.48 249.571 115.446 249.556 115.429C249.084 115.497 248.611 115.497 248.154 115.429C247.697 115.362 247.285 115.226 246.92 115.024C246.843 115.226 246.752 115.429 246.63 115.632C246.478 115.902 246.295 116.155 246.081 116.409C245.975 116.527 245.868 116.645 245.746 116.764C245.563 116.933 245.38 117.101 245.182 117.237C245.198 117.27 245.243 117.422 245.426 117.946C245.457 118.047 245.502 118.166 245.548 118.301C245.563 118.368 245.594 118.436 245.624 118.504C245.7 118.723 245.792 118.993 245.899 119.298C246.036 119.703 246.234 120.041 246.447 120.328C246.523 120.429 246.6 120.514 246.676 120.598C246.92 120.852 247.179 121.054 247.438 121.206C247.697 121.358 247.971 121.477 248.215 121.561C248.535 121.679 248.825 121.73 249.008 121.764C249.099 121.781 249.175 121.781 249.221 121.798C249.297 121.713 249.495 121.477 249.709 121.122C249.8 120.987 249.891 120.818 249.968 120.649C250.013 120.564 250.059 120.463 250.09 120.379C250.41 119.618 250.608 118.605 250.242 117.524C249.846 116.257 249.678 115.75 249.602 115.547Z" fill="#F7BD0C"/>
<path d="M249.495 117.811C249.785 118.673 249.389 119.635 248.596 119.956C247.819 120.277 246.935 119.838 246.661 118.977C246.371 118.115 246.767 117.152 247.56 116.831C248.337 116.51 249.206 116.949 249.495 117.811Z" fill="white"/>
<path d="M252.33 155.499L253.321 157.813L253.473 155.347L254.814 159.3C254.479 158.641 253.336 158.066 253.336 158.066C253.336 158.066 252.101 158.691 251.492 160.195L252.33 155.499Z" fill="#231F20"/>
<path d="M243.247 151.005C244.74 153.134 249.571 154.586 252.33 155.499L251.507 160.212C248.2 158.979 243.902 157.56 241.982 153.167C241.555 151.968 242.073 151.309 243.247 151.005Z" fill="#1D498C"/>
<path d="M255.942 150.262C255.789 151.039 255.683 154.08 253.473 155.364L254.814 159.316C257.847 157.391 258.015 155.6 257.542 152.813C257.359 151.698 257.024 150.498 255.942 150.262Z" fill="#1D498C"/>
<path d="M258.563 203.204C258.487 203.204 258.441 203.153 258.426 203.069C258.091 199.572 257.816 195.399 257.527 190.99C256.734 178.963 255.835 165.33 253.214 158.134C253.183 158.049 253.214 157.965 253.29 157.931C253.366 157.897 253.442 157.931 253.473 158.016C256.094 165.263 257.009 178.912 257.801 190.956C258.091 195.365 258.365 199.538 258.7 203.018C258.716 203.119 258.655 203.187 258.563 203.204C258.578 203.204 258.578 203.204 258.563 203.204Z" fill="#231F20"/>
<path d="M239.178 200.129C245.639 202.055 270.969 201.312 271.975 200.45C273.514 200.062 273.864 206.211 272.965 207.697C271.594 209.961 239.056 209.606 238.019 207.967C236.983 206.329 237.349 199.589 239.178 200.129Z" fill="#231F20"/>
<path d="M264.202 166.918C264.202 166.851 264.187 166.817 264.187 166.8C263.73 166.749 263.272 166.614 262.861 166.428C262.449 166.242 262.084 166.006 261.794 165.719C261.672 165.888 261.55 166.057 261.398 166.226C261.2 166.445 260.971 166.631 260.712 166.817C260.59 166.901 260.453 166.986 260.316 167.07C260.118 167.188 259.904 167.29 259.691 167.374C259.691 167.408 259.706 167.577 259.767 168.101C259.782 168.202 259.798 168.32 259.798 168.455C259.798 168.523 259.813 168.591 259.813 168.675C259.843 168.911 259.859 169.182 259.904 169.486C259.95 169.908 260.057 170.28 260.209 170.601C260.255 170.702 260.316 170.82 260.377 170.922C260.544 171.226 260.758 171.479 260.971 171.699C261.184 171.918 261.413 172.087 261.626 172.239C261.901 172.425 262.16 172.56 262.343 172.628C262.434 172.662 262.495 172.695 262.541 172.712C262.632 172.645 262.876 172.476 263.15 172.189C263.257 172.07 263.379 171.952 263.501 171.8C263.562 171.733 263.623 171.648 263.684 171.564C264.141 170.922 264.553 170.026 264.431 168.895C264.278 167.645 264.217 167.121 264.202 166.918Z" fill="#F7BD0C"/>
<path d="M265.793 173.825L259.422 174.513L259.536 175.807L265.907 175.12L265.793 173.825Z" fill="#1D498C"/>
<path d="M258.761 223.965H256.795L256.841 223.779C257.725 219.657 257.832 209.657 257.847 209.555H258.121C258.121 209.657 257.999 219.404 257.146 223.661H258.533C258.716 222.647 259.935 215.552 259.63 209.809L259.904 209.792C260.24 216.008 258.807 223.779 258.792 223.847L258.761 223.965Z" fill="#231F20"/>
<path d="M226.833 177.493C226.833 177.493 224.257 193.626 226.879 199.318C229.592 205.197 254.601 206.481 254.601 206.481L255.5 198.136L238.263 193.288L242.012 180.922L226.833 177.493Z" fill="#F7A594"/>
<path d="M233.325 156.732C233.325 156.732 226.056 166.563 225.766 180.635C235.246 188.287 241.479 182.78 241.479 182.78C241.479 182.78 246.28 168.709 245.213 161.867C244.146 155.009 235.474 154.249 233.325 156.732Z" fill="#112E59"/>
<path d="M226.086 176.429C227.366 178.152 242.089 181.53 242.393 179.638C242.805 181.446 242.713 183.22 241.403 184.875C241.022 187.51 225.065 184.74 225.446 182.105C224.501 180.449 224.715 178.574 226.086 176.429Z" fill="#1D498C"/>
<path d="M242.393 179.773C242.363 179.773 242.348 179.773 242.317 179.757C242.256 179.706 242.226 179.621 242.271 179.554C243.338 177.561 244.222 174.858 244.71 172.155C244.725 172.07 244.801 172.02 244.877 172.037C244.954 172.054 244.999 172.138 244.984 172.222C244.481 174.959 243.582 177.696 242.5 179.706C242.485 179.757 242.439 179.773 242.393 179.773Z" fill="#231F20"/>
<path d="M270.329 163.252C264.233 170.364 254.54 176.158 244.192 178.574C244.176 179.334 244.146 183.557 243.948 203.001C243.689 228.948 265.985 241.787 269.445 243.763C272.828 242.074 295.551 229.59 295.81 203.643C296.008 184.199 296.054 179.976 296.054 179.216C285.767 176.547 276.272 170.516 270.329 163.252Z" fill="white"/>
<path d="M270.237 167.949C264.278 173.912 256.033 178.557 246.996 181.057L246.783 203.035C246.676 213.086 250.242 222.208 257.39 230.148C262.084 235.367 267.021 238.611 269.536 240.081C269.643 240.013 269.765 239.945 269.887 239.895L270.313 167.999C270.268 167.982 270.252 167.965 270.237 167.949Z" fill="#278C41"/>
<path d="M270.283 167.999L269.856 239.895C272.477 238.408 277.263 235.334 281.85 230.452C289.15 222.681 292.884 213.66 292.991 203.592L293.204 181.615C284.243 178.912 276.12 174.081 270.283 167.999Z" fill="#2FAA4E"/>
<path d="M259.6 199.606L259.493 216.633C259.478 218.525 280.463 218.677 280.479 216.785L280.585 199.758L259.6 199.606ZM271.106 208.728L271.075 213.559C271.075 214.201 270.588 214.725 270.009 214.725C269.414 214.725 268.942 214.184 268.957 213.542L268.987 208.711C268.088 208.255 267.463 207.258 267.479 206.092C267.494 204.504 268.667 203.254 270.085 203.254C271.517 203.271 272.66 204.555 272.66 206.126C272.645 207.292 272.02 208.288 271.106 208.728Z" fill="white"/>
<path d="M278.756 198.524L276.638 198.508V197.359C276.669 193.389 273.758 190.129 270.146 190.112C266.549 190.078 263.592 193.305 263.577 197.274V198.423L261.459 198.406V197.257C261.489 191.987 265.391 187.73 270.176 187.781C274.946 187.814 278.802 192.122 278.772 197.393L278.756 198.524Z" fill="white"/>
</svg>
