<svg width="334" height="330" viewBox="0 0 334 330" fill="none" xmlns="http://www.w3.org/2000/svg">
<path d="M244.397 285.092C273.41 287.856 309.676 272.329 325.676 238.299C332.301 224.207 336.7 206.124 332.108 190.537C328.596 178.756 313.807 165.405 310.631 153.39C307.4 141.247 307.855 127.57 309.518 114.807C314.287 78.0927 287.748 20.8591 231.741 14.7446C189.266 10.1119 170.049 54.6559 133.902 60.7371C97.4184 66.8716 54.6414 30.0309 28.5477 60.7371C-3.85918 98.8394 11.3498 136.975 15.293 154.818C20.3594 177.741 -4.40835 203.901 0.697584 237.645C12.1216 313.075 95.1227 262.216 119.44 259.005C144.149 255.768 168.669 265.26 192.878 272.877C217.086 280.493 242.735 286.227 266.404 275.767L244.397 285.092Z" fill="#F5F9FE"/>
<path d="M283.001 302.611C283.001 302.611 284.083 294.641 289.187 293.771C294.29 292.901 292.746 289.069 294.079 287.549C295.412 286.028 298.877 290.456 295.905 294.719C292.934 298.982 295.365 297.65 294.079 301.615C292.793 305.581 282.53 309.24 283.001 302.611Z" fill="#263238"/>
<path opacity="0.2" d="M283.001 302.611C283.001 302.611 284.083 294.641 289.187 293.771C294.29 292.901 292.746 289.069 294.079 287.549C295.412 286.028 298.877 290.456 295.905 294.719C292.934 298.982 295.365 297.65 294.079 301.615C292.793 305.581 282.53 309.24 283.001 302.611Z" fill="white"/>
<path d="M284.694 308.057C284.653 308.065 284.61 308.065 284.569 308.057C284.525 308.041 284.485 308.017 284.451 307.985C284.416 307.954 284.389 307.916 284.37 307.873C284.351 307.831 284.341 307.785 284.34 307.738C284.339 307.692 284.348 307.646 284.365 307.603C284.365 307.516 287.501 299.131 284.49 286.357C283.562 282.687 282.248 279.125 280.57 275.731C277.63 269.336 275.082 263.819 278.854 253.514C280.022 250.333 281.206 247.355 282.405 244.479C286.725 233.868 290.135 225.483 286.537 217.724C286.497 217.639 286.493 217.542 286.526 217.454C286.558 217.365 286.624 217.294 286.709 217.254C286.794 217.215 286.892 217.211 286.98 217.243C287.068 217.275 287.14 217.341 287.18 217.427C290.911 225.459 287.446 233.97 283.056 244.745C281.888 247.613 280.704 250.583 279.52 253.757C275.851 263.788 278.218 268.921 281.213 275.433C282.921 278.87 284.263 282.476 285.22 286.193C288.356 299.194 285.094 307.775 285.063 307.861C285.031 307.93 284.978 307.986 284.912 308.021C284.845 308.056 284.769 308.069 284.694 308.057Z" fill="#263238"/>
<path d="M286.152 306.2C286.152 306.2 289.453 301.231 284.694 298.677C279.935 296.122 278.979 298.175 276.07 296.326C273.162 294.476 270.888 290.056 270.386 292.885C269.885 295.714 273.287 297.36 272.088 298.661C270.888 299.962 280.061 308.457 286.152 306.2Z" fill="#263238"/>
<path d="M288.544 221.572C288.544 221.572 290.966 211.588 283.667 211.964C276.368 212.341 285.125 220.804 288.544 221.572Z" fill="#263238"/>
<path d="M282.821 229.558C282.821 229.558 279.935 220.883 274.918 223.163C269.9 225.443 277.677 230.138 282.821 229.558Z" fill="#263238"/>
<path d="M291.648 229.62C291.648 229.62 290.3 222.622 295.78 222.042C301.26 221.462 299.308 227.865 291.648 229.62Z" fill="#263238"/>
<path d="M289.155 244.314C289.155 244.314 296 237.144 299.026 241.845C302.052 246.547 293.946 248.177 289.155 244.314Z" fill="#263238"/>
<path d="M276.039 244.196C276.039 244.196 273.781 233.413 268.105 237.3C262.429 241.187 270.912 245.701 276.039 244.196Z" fill="#263238"/>
<path d="M272.056 260.215C272.056 260.215 275.561 248.851 267.501 250.748C259.442 252.644 266.082 258.005 272.056 260.215Z" fill="#263238"/>
<path d="M284.882 263.138C284.882 263.138 291.154 254.47 296.595 256.625C302.036 258.78 298.406 267.181 284.882 263.138Z" fill="#263238"/>
<path d="M280.077 281.608C280.077 281.608 273.162 269.07 268.317 273.866C263.471 278.662 272.48 284.547 280.077 281.608Z" fill="#263238"/>
<path d="M288.544 280.167C288.544 280.167 286.192 270.183 292.056 270.527C297.92 270.872 296.901 277.181 288.544 280.167Z" fill="#263238"/>
<g opacity="0.2">
<path d="M288.544 221.572C288.544 221.572 290.966 211.588 283.667 211.964C276.368 212.341 285.125 220.804 288.544 221.572Z" fill="white"/>
<path d="M282.821 229.558C282.821 229.558 279.935 220.883 274.918 223.163C269.9 225.443 277.677 230.138 282.821 229.558Z" fill="white"/>
<path d="M291.648 229.62C291.648 229.62 290.3 222.622 295.78 222.042C301.26 221.462 299.308 227.865 291.648 229.62Z" fill="white"/>
<path d="M289.155 244.314C289.155 244.314 296 237.144 299.026 241.845C302.052 246.547 293.946 248.177 289.155 244.314Z" fill="white"/>
<path d="M276.039 244.196C276.039 244.196 273.781 233.413 268.105 237.3C262.429 241.187 270.912 245.701 276.039 244.196Z" fill="white"/>
<path d="M272.056 260.215C272.056 260.215 275.561 248.851 267.501 250.748C259.442 252.644 266.082 258.005 272.056 260.215Z" fill="white"/>
<path d="M284.882 263.138C284.882 263.138 291.154 254.47 296.595 256.625C302.036 258.78 298.406 267.181 284.882 263.138Z" fill="white"/>
<path d="M280.077 281.608C280.077 281.608 273.162 269.07 268.317 273.866C263.471 278.662 272.48 284.547 280.077 281.608Z" fill="white"/>
<path d="M288.544 280.167C288.544 280.167 286.192 270.183 292.056 270.527C297.92 270.872 296.901 277.181 288.544 280.167Z" fill="white"/>
</g>
<path d="M286.435 235.161H286.356C286.265 235.14 286.186 235.083 286.137 235.004C286.098 234.949 282.883 229.832 280.649 228.735C280.607 228.716 280.568 228.688 280.537 228.654C280.506 228.619 280.482 228.579 280.466 228.535C280.451 228.491 280.444 228.444 280.448 228.398C280.451 228.351 280.463 228.306 280.484 228.265C280.504 228.222 280.533 228.184 280.568 228.152C280.603 228.121 280.644 228.097 280.689 228.081C280.733 228.066 280.78 228.06 280.827 228.063C280.874 228.066 280.92 228.079 280.962 228.1C283.032 229.127 285.737 233.139 286.498 234.307C290.308 231.611 292.911 227.034 292.942 226.987C292.988 226.907 293.064 226.847 293.154 226.822C293.243 226.797 293.339 226.809 293.42 226.854C293.461 226.876 293.497 226.906 293.526 226.942C293.555 226.979 293.576 227.02 293.588 227.065C293.601 227.109 293.604 227.156 293.598 227.202C293.592 227.248 293.577 227.292 293.554 227.332C293.444 227.536 290.708 232.348 286.592 235.098C286.545 235.132 286.491 235.153 286.435 235.161Z" fill="#263238"/>
<path d="M280.845 249.212H280.798C280.749 249.207 280.701 249.191 280.659 249.165C280.617 249.139 280.582 249.104 280.555 249.063C280.555 249.008 276.572 243.46 271.931 241.226C271.846 241.184 271.781 241.11 271.751 241.021C271.72 240.932 271.725 240.834 271.766 240.748C271.81 240.665 271.884 240.602 271.973 240.571C272.061 240.54 272.159 240.545 272.244 240.584C276.478 242.645 280.006 247.127 280.931 248.373C286.85 243.319 294.69 242.888 294.769 242.888C294.862 242.886 294.952 242.919 295.021 242.982C295.089 243.045 295.131 243.132 295.137 243.225C295.139 243.271 295.132 243.317 295.116 243.361C295.101 243.405 295.076 243.445 295.045 243.479C295.014 243.513 294.976 243.541 294.934 243.56C294.892 243.58 294.846 243.591 294.8 243.593C294.722 243.593 286.866 244.032 281.111 249.157C281.033 249.208 280.938 249.227 280.845 249.212Z" fill="#263238"/>
<path d="M278.022 267.416C277.952 267.419 277.882 267.397 277.826 267.354C273.122 264.219 269.085 255.701 268.912 255.34C268.875 255.255 268.871 255.158 268.904 255.07C268.936 254.982 269.001 254.911 269.085 254.87C269.127 254.85 269.173 254.839 269.219 254.837C269.266 254.835 269.312 254.842 269.356 254.858C269.4 254.874 269.44 254.899 269.474 254.93C269.508 254.962 269.536 255 269.555 255.042C269.594 255.121 273.593 263.467 278.022 266.633C279.402 265.708 287.086 260.7 293.256 260.081C293.348 260.074 293.439 260.103 293.51 260.162C293.582 260.22 293.628 260.303 293.64 260.395C293.647 260.488 293.618 260.58 293.56 260.652C293.502 260.725 293.418 260.773 293.326 260.787C286.85 261.429 278.313 267.299 278.226 267.354C278.167 267.397 278.095 267.419 278.022 267.416Z" fill="#263238"/>
<path d="M284.694 285.472C284.642 285.473 284.59 285.463 284.543 285.441C284.495 285.419 284.453 285.387 284.42 285.347C281.662 282.522 278.105 280.607 274.228 279.861C274.182 279.852 274.138 279.833 274.099 279.807C274.06 279.78 274.027 279.746 274.002 279.707C273.976 279.668 273.959 279.623 273.95 279.577C273.942 279.531 273.943 279.484 273.953 279.438C273.963 279.392 273.981 279.348 274.008 279.31C274.034 279.271 274.068 279.239 274.108 279.214C274.148 279.189 274.192 279.172 274.238 279.165C274.284 279.158 274.331 279.16 274.377 279.171C278.291 279.943 281.891 281.851 284.726 284.657C287.736 282.306 291.272 273.827 291.303 273.741C291.321 273.698 291.348 273.659 291.381 273.626C291.414 273.594 291.453 273.568 291.496 273.551C291.539 273.533 291.585 273.524 291.631 273.525C291.677 273.525 291.723 273.534 291.766 273.552C291.852 273.589 291.921 273.658 291.958 273.744C291.994 273.83 291.996 273.927 291.962 274.015C291.805 274.391 288.113 283.223 284.906 285.425C284.844 285.467 284.768 285.483 284.694 285.472Z" fill="#263238"/>
<path d="M285.651 305.009C285.651 305.009 288.473 300.51 291.672 299.876C294.871 299.241 296.235 295.558 297.419 297.768C298.603 299.977 295.349 307.313 285.651 305.009Z" fill="#263238"/>
<path d="M300.327 322.664H269.453L267.384 303.629H302.389L300.327 322.664Z" fill="#0ACF83"/>
<path opacity="0.3" d="M303.11 307.234H266.662L266.2 303.206H303.573L303.11 307.234Z" fill="#01260E"/>
<g opacity="0.3">
<path d="M106.75 229.033L108.898 227.27L110.191 228.838L108.067 230.593C109.494 232.56 110.419 234.887 110.34 236.596L107.69 237.325C107.61 235.522 107.023 233.778 105.997 232.294L102.155 235.428C103.394 237.975 104.578 240.828 101.912 243.022C99.9601 244.628 97.0828 244.589 94.3388 241.862L92.1593 243.664L90.8657 242.097L92.9982 240.342C91.9229 238.921 91.222 237.253 90.9597 235.491L93.547 234.707C93.7741 236.117 94.292 237.465 95.0679 238.665L98.9409 235.475C97.7022 232.928 96.4635 230.052 99.1291 227.858C101.097 226.228 103.966 226.275 106.75 229.033ZM99.8346 237.356L96.4242 240.161C97.757 241.353 98.9174 241.36 99.7641 240.663C100.611 239.966 100.43 238.712 99.8346 237.356ZM101.332 230.146C100.391 230.93 100.65 232.129 101.269 233.547L104.664 230.758C103.3 229.527 102.155 229.472 101.332 230.146Z" fill="white"/>
</g>
<g opacity="0.3">
<path d="M107.714 212.584L110.121 211.19L111.14 212.953L108.788 214.332C109.878 216.511 110.356 218.948 110.05 220.601L107.322 220.891C107.538 219.098 107.242 217.28 106.467 215.649L102.171 218.141C102.955 220.86 103.676 223.861 100.689 225.593C98.494 226.863 95.6638 226.377 93.398 223.242L90.9441 224.606L89.9171 222.85L92.3082 221.463C91.4793 219.887 91.0614 218.127 91.0931 216.346L93.7743 215.97C93.7646 217.399 94.0558 218.814 94.6289 220.123L98.9644 217.608C98.1804 214.888 97.3964 211.856 100.399 210.132C102.594 208.933 105.417 209.411 107.714 212.584ZM99.5367 219.637L95.7108 221.847C96.8319 223.234 97.9766 223.415 98.9252 222.89C99.8738 222.365 99.8895 221.126 99.5367 219.669V219.637ZM102.187 212.765C101.136 213.376 101.191 214.606 101.567 216.103L105.37 213.909C104.225 212.506 103.135 212.263 102.187 212.796V212.765Z" fill="white"/>
</g>
<g opacity="0.3">
<path d="M114.895 200.312L117.529 199.411L118.188 201.331L115.585 202.232C116.236 204.583 116.252 207.067 115.585 208.65L112.849 208.415C113.407 206.696 113.464 204.853 113.014 203.102L108.31 204.724C108.568 207.546 108.686 210.633 105.425 211.777C103.025 212.6 100.336 211.581 98.7292 208.047L96.0793 208.933L95.4207 207.013L98.0236 206.111C97.5157 204.404 97.443 202.596 97.8119 200.853L100.517 201.002C100.237 202.403 100.253 203.847 100.564 205.242L105.268 203.604C105.009 200.783 104.852 197.664 108.114 196.551C110.56 195.673 113.225 196.723 114.895 200.312ZM105.487 205.704L101.309 207.138C102.14 208.705 103.229 209.128 104.264 208.776C105.299 208.423 105.558 207.161 105.487 205.665V205.704ZM109.407 199.435C108.255 199.834 108.074 201.049 108.161 202.569L112.316 201.143C111.469 199.529 110.419 199.082 109.407 199.427V199.435Z" fill="white"/>
</g>
<path opacity="0.1" d="M88.5372 298.521C85.8259 299.242 82.9901 299.365 80.2264 298.882C77.4627 298.398 74.8374 297.319 72.5326 295.72C70.2278 294.121 68.2987 292.039 66.8791 289.62C65.4595 287.201 64.5834 284.503 64.3116 281.711C67.0231 280.984 69.8606 280.857 72.6264 281.338C75.3922 281.819 78.0198 282.898 80.326 284.498C82.6322 286.098 84.5615 288.182 85.9797 290.604C87.3978 293.025 88.2706 295.727 88.5372 298.521Z" fill="black"/>
<path opacity="0.1" d="M120.269 264.293C129.672 259.264 133.216 247.567 128.185 238.168C123.153 228.769 111.452 225.227 102.049 230.256C92.6455 235.285 89.1015 246.981 94.1329 256.38C99.1642 265.779 110.866 269.322 120.269 264.293Z" fill="black"/>
<path opacity="0.1" d="M160.838 283.584L131.155 308.011C129.258 306.106 127.779 303.826 126.814 301.317C125.849 298.807 125.419 296.124 125.552 293.439C125.685 290.754 126.377 288.126 127.585 285.724C128.793 283.322 130.489 281.199 132.565 279.49C134.641 277.782 137.052 276.526 139.642 275.802C142.232 275.079 144.945 274.904 147.607 275.289C150.269 275.675 152.82 276.612 155.099 278.04C157.377 279.468 159.332 281.357 160.838 283.584Z" fill="black"/>
<path opacity="0.2" d="M115.484 316.858H86.0757C85.9782 316.858 85.8818 316.878 85.7918 316.915C85.7019 316.953 85.6203 317.008 85.5518 317.077C85.4833 317.146 85.4291 317.228 85.3926 317.319C85.356 317.409 85.3377 317.505 85.3387 317.603V321.521C85.3387 321.698 85.2685 321.867 85.1435 321.992C85.0186 322.117 84.8491 322.187 84.6723 322.187H76.7383L76.6912 322.125C76.6957 322.104 76.6957 322.083 76.6912 322.062C76.6912 322.062 76.6912 322.007 76.6912 321.976C76.6875 321.963 76.6875 321.949 76.6912 321.936C76.67 321.895 76.6567 321.85 76.652 321.803C76.6474 321.748 76.6474 321.693 76.652 321.639V317.861C76.6557 317.542 76.782 317.236 77.0048 317.007C77.1183 316.895 77.2529 316.806 77.4009 316.745C77.5489 316.685 77.7073 316.654 77.8672 316.655H114.817H114.997H115.06H115.131C115.185 316.67 115.238 316.691 115.288 316.717C115.295 316.714 115.303 316.712 115.311 316.712C115.319 316.712 115.327 316.714 115.335 316.717L115.484 316.858Z" fill="white"/>
<path opacity="0.1" d="M116.024 317.861V321.443C116.025 321.6 115.995 321.756 115.934 321.902C115.873 322.047 115.784 322.179 115.672 322.289C115.619 322.347 115.559 322.398 115.491 322.438C115.294 322.576 115.058 322.65 114.817 322.65H77.6947H77.5065H77.3889C77.2594 322.622 77.1368 322.569 77.0283 322.493H106.428C106.526 322.494 106.622 322.476 106.713 322.439C106.803 322.403 106.885 322.348 106.954 322.28C107.024 322.211 107.079 322.13 107.116 322.04C107.154 321.95 107.173 321.854 107.173 321.756V317.838C107.173 317.661 107.243 317.492 107.368 317.367C107.493 317.242 107.663 317.172 107.84 317.172H115.774L115.868 317.305C115.864 317.323 115.864 317.342 115.868 317.36C115.893 317.407 115.914 317.457 115.93 317.509L115.977 317.697C115.996 317.751 116.011 317.806 116.024 317.861Z" fill="black"/>
<path opacity="0.2" d="M116.228 310.903H86.8205C86.625 310.903 86.4376 310.98 86.2994 311.118C86.1612 311.256 86.0835 311.444 86.0835 311.639V315.557C86.0815 315.734 86.0106 315.902 85.8861 316.026C85.7615 316.151 85.5932 316.222 85.4171 316.224H77.483C77.4853 316.208 77.4853 316.192 77.483 316.177V316.13C77.4844 316.103 77.4844 316.077 77.483 316.051C77.4844 316.025 77.4844 315.999 77.483 315.973C77.4793 315.96 77.4793 315.946 77.483 315.934C77.473 315.89 77.473 315.844 77.483 315.8C77.4792 315.746 77.4792 315.691 77.483 315.636V312.023C77.4805 311.783 77.5516 311.548 77.6868 311.349C77.7302 311.284 77.7801 311.224 77.8358 311.169C77.9825 311.015 78.1702 310.906 78.3768 310.856C78.4713 310.83 78.5689 310.817 78.6668 310.816H115.789H115.97H116.056H116.126H116.181C116.198 310.844 116.214 310.873 116.228 310.903Z" fill="white"/>
<path opacity="0.1" d="M114.527 294.03V297.604C114.53 297.886 114.433 298.16 114.254 298.378C114.075 298.596 113.824 298.743 113.547 298.795H113.335H76.1973H75.9934C75.915 298.777 75.8388 298.751 75.7661 298.717C75.6967 298.695 75.6307 298.663 75.5701 298.623H104.939C105.134 298.623 105.322 298.545 105.46 298.407C105.598 298.269 105.676 298.081 105.676 297.886V293.968C105.678 293.792 105.749 293.623 105.873 293.499C105.998 293.374 106.166 293.304 106.342 293.302H114.276C114.309 293.343 114.338 293.388 114.362 293.435C114.367 293.461 114.367 293.487 114.362 293.513L114.417 293.623C114.422 293.641 114.422 293.66 114.417 293.678C114.424 293.724 114.424 293.772 114.417 293.819C114.462 293.885 114.499 293.956 114.527 294.03Z" fill="black"/>
<path opacity="0.1" d="M117.522 288.082V291.664C117.522 291.823 117.49 291.98 117.429 292.127C117.368 292.274 117.278 292.408 117.166 292.52C117.053 292.632 116.919 292.721 116.771 292.781C116.624 292.841 116.466 292.872 116.307 292.87H79.1843H79.004H78.9021C78.7739 292.835 78.6521 292.78 78.5414 292.706H107.934C108.031 292.706 108.128 292.687 108.217 292.649C108.307 292.612 108.389 292.557 108.458 292.487C108.526 292.418 108.58 292.336 108.617 292.246C108.653 292.155 108.672 292.059 108.671 291.961V288.043C108.671 287.866 108.741 287.697 108.866 287.572C108.991 287.447 109.16 287.377 109.337 287.377H117.248L117.349 287.51C117.345 287.528 117.345 287.547 117.349 287.565C117.349 287.612 117.349 287.659 117.404 287.714C117.428 287.778 117.447 287.843 117.459 287.91C117.483 287.966 117.504 288.024 117.522 288.082Z" fill="black"/>
<path opacity="0.1" d="M116.024 282.103V285.676C116.025 285.835 115.995 285.991 115.938 286.139C115.878 286.283 115.79 286.413 115.68 286.523C115.53 286.673 115.343 286.781 115.139 286.836C115.044 286.861 114.946 286.875 114.848 286.875H77.6947H77.5065H77.3889C77.2594 286.848 77.1368 286.795 77.0283 286.719H106.428C106.526 286.72 106.622 286.702 106.713 286.665C106.803 286.628 106.885 286.574 106.954 286.506C107.024 286.437 107.079 286.356 107.116 286.266C107.154 286.176 107.173 286.08 107.173 285.982V282.064C107.175 281.888 107.246 281.72 107.371 281.595C107.495 281.471 107.663 281.4 107.84 281.398H115.774L115.876 281.547C115.876 281.601 115.93 281.664 115.946 281.711C115.992 281.837 116.018 281.969 116.024 282.103Z" fill="black"/>
<g opacity="0.2">
<path d="M59.2786 321.984C59.2307 321.984 59.1849 321.965 59.151 321.931C59.1172 321.897 59.0983 321.851 59.0983 321.803V317.532C59.0926 317.505 59.0931 317.477 59.0997 317.45C59.1063 317.422 59.1189 317.397 59.1365 317.375C59.1542 317.354 59.1765 317.336 59.2017 317.324C59.227 317.312 59.2545 317.306 59.2825 317.306C59.3104 317.306 59.338 317.312 59.3633 317.324C59.3885 317.336 59.4108 317.354 59.4284 317.375C59.4461 317.397 59.4586 317.422 59.4653 317.45C59.4719 317.477 59.4724 317.505 59.4667 317.532V321.78C59.4702 321.806 59.4679 321.833 59.4599 321.858C59.4519 321.883 59.4384 321.906 59.4205 321.926C59.4025 321.945 59.3805 321.96 59.3559 321.97C59.3314 321.98 59.305 321.985 59.2786 321.984Z" fill="black"/>
<path d="M61.2543 321.984C61.2299 321.985 61.2056 321.981 61.1828 321.972C61.16 321.964 61.1392 321.95 61.1217 321.934C61.1041 321.917 61.0901 321.896 61.0805 321.874C61.071 321.852 61.0661 321.828 61.0661 321.803V317.532C61.0661 317.482 61.0859 317.435 61.1212 317.399C61.1565 317.364 61.2044 317.344 61.2543 317.344C61.3042 317.344 61.352 317.364 61.3873 317.399C61.4226 317.435 61.4424 317.482 61.4424 317.532V321.78C61.4459 321.806 61.4436 321.833 61.4356 321.858C61.4276 321.883 61.4141 321.906 61.3961 321.926C61.3782 321.945 61.3562 321.96 61.3316 321.97C61.3071 321.98 61.2807 321.985 61.2543 321.984Z" fill="black"/>
<path d="M63.2299 321.984C63.2056 321.985 63.1813 321.981 63.1585 321.972C63.1357 321.964 63.1149 321.95 63.0973 321.934C63.0797 321.917 63.0657 321.896 63.0562 321.874C63.0467 321.852 63.0417 321.828 63.0418 321.803V317.532C63.0361 317.505 63.0366 317.477 63.0432 317.45C63.0498 317.422 63.0624 317.397 63.0801 317.375C63.0977 317.354 63.12 317.336 63.1452 317.324C63.1704 317.312 63.198 317.306 63.226 317.306C63.2539 317.306 63.2816 317.312 63.3068 317.324C63.332 317.336 63.3543 317.354 63.3719 317.375C63.3896 317.397 63.4022 317.422 63.4088 317.45C63.4154 317.477 63.4159 317.505 63.4103 317.532V321.78C63.4136 321.805 63.4114 321.831 63.4039 321.856C63.3963 321.881 63.3836 321.903 63.3665 321.923C63.3494 321.942 63.3284 321.957 63.3048 321.968C63.2813 321.978 63.2557 321.984 63.2299 321.984Z" fill="black"/>
<path d="M65.1978 321.984C65.1734 321.985 65.1491 321.981 65.1264 321.972C65.1036 321.964 65.0827 321.95 65.0652 321.934C65.0476 321.917 65.0336 321.896 65.024 321.874C65.0145 321.852 65.0096 321.828 65.0096 321.803V317.532C65.0096 317.482 65.0294 317.435 65.0647 317.399C65.1 317.364 65.1478 317.344 65.1978 317.344C65.2477 317.344 65.2955 317.364 65.3308 317.399C65.3661 317.435 65.3859 317.482 65.3859 317.532V321.78C65.3894 321.806 65.3871 321.833 65.3791 321.858C65.3711 321.883 65.3576 321.906 65.3397 321.926C65.3217 321.945 65.2997 321.96 65.2752 321.97C65.2506 321.98 65.2242 321.985 65.1978 321.984Z" fill="black"/>
<path d="M67.1734 321.984C67.1491 321.985 67.1248 321.981 67.102 321.972C67.0792 321.964 67.0584 321.95 67.0408 321.934C67.0233 321.917 67.0092 321.896 66.9997 321.874C66.9901 321.852 66.9853 321.828 66.9853 321.803V317.532C66.9796 317.505 66.9801 317.477 66.9867 317.45C66.9934 317.422 67.0059 317.397 67.0236 317.375C67.0412 317.354 67.0635 317.336 67.0887 317.324C67.114 317.312 67.1416 317.306 67.1695 317.306C67.1975 317.306 67.2251 317.312 67.2503 317.324C67.2755 317.336 67.2978 317.354 67.3155 317.375C67.3331 317.397 67.3457 317.422 67.3523 317.45C67.3589 317.477 67.3594 317.505 67.3537 317.532V321.78C67.3571 321.805 67.355 321.831 67.3474 321.856C67.3399 321.881 67.3272 321.903 67.3101 321.923C67.293 321.942 67.2719 321.957 67.2483 321.968C67.2248 321.978 67.1992 321.984 67.1734 321.984Z" fill="black"/>
<path d="M69.1413 321.984C69.117 321.985 69.0926 321.981 69.0699 321.972C69.0471 321.964 69.0263 321.95 69.0087 321.934C68.9911 321.917 68.9771 321.896 68.9675 321.874C68.958 321.852 68.9531 321.828 68.9531 321.803V317.532C68.9531 317.482 68.9729 317.435 69.0082 317.399C69.0435 317.364 69.0914 317.344 69.1413 317.344C69.1912 317.344 69.239 317.364 69.2743 317.399C69.3096 317.435 69.3294 317.482 69.3294 317.532V321.78C69.3329 321.806 69.3306 321.833 69.3226 321.858C69.3146 321.883 69.3011 321.906 69.2832 321.926C69.2652 321.945 69.2432 321.96 69.2187 321.97C69.1941 321.98 69.1677 321.985 69.1413 321.984Z" fill="black"/>
</g>
<g opacity="0.2">
<path d="M59.9606 316.02C59.9369 316.02 59.9135 316.015 59.8916 316.006C59.8697 315.997 59.8499 315.984 59.8331 315.967C59.8164 315.95 59.8031 315.93 59.7941 315.909C59.785 315.887 59.7803 315.863 59.7803 315.84V311.592C59.7746 311.565 59.7751 311.537 59.7818 311.509C59.7884 311.482 59.801 311.457 59.8186 311.435C59.8362 311.414 59.8585 311.396 59.8838 311.384C59.909 311.372 59.9366 311.366 59.9645 311.366C59.9925 311.366 60.0201 311.372 60.0453 311.384C60.0706 311.396 60.0929 311.414 60.1105 311.435C60.1281 311.457 60.1407 311.482 60.1473 311.509C60.154 311.537 60.1545 311.565 60.1488 311.592V315.863C60.1429 315.908 60.1203 315.949 60.0854 315.978C60.0505 316.007 60.006 316.022 59.9606 316.02Z" fill="black"/>
<path d="M61.9363 316.02C61.912 316.021 61.8877 316.017 61.8649 316.008C61.8421 316 61.8213 315.987 61.8037 315.97C61.7861 315.953 61.7721 315.933 61.7626 315.91C61.753 315.888 61.7481 315.864 61.7482 315.84V311.592C61.7482 311.542 61.768 311.494 61.8032 311.459C61.8385 311.424 61.8864 311.404 61.9363 311.404C61.9862 311.404 62.0341 311.424 62.0693 311.459C62.1046 311.494 62.1245 311.542 62.1245 311.592V315.863C62.1186 315.908 62.096 315.949 62.0611 315.978C62.0262 316.007 61.9817 316.022 61.9363 316.02Z" fill="black"/>
<path d="M63.9355 316.02C63.9112 316.021 63.8869 316.017 63.8641 316.008C63.8413 316 63.8205 315.987 63.8029 315.97C63.7853 315.953 63.7714 315.933 63.7618 315.91C63.7523 315.888 63.7473 315.864 63.7474 315.84V311.592C63.7417 311.565 63.7422 311.537 63.7488 311.509C63.7554 311.482 63.768 311.457 63.7856 311.435C63.8033 311.414 63.8256 311.396 63.8508 311.384C63.8761 311.372 63.9036 311.366 63.9316 311.366C63.9595 311.366 63.9872 311.372 64.0124 311.384C64.0377 311.396 64.0599 311.414 64.0775 311.435C64.0952 311.457 64.1078 311.482 64.1144 311.509C64.121 311.537 64.1215 311.565 64.1158 311.592V315.863C64.1101 315.907 64.0886 315.947 64.0554 315.976C64.0222 316.004 63.9795 316.02 63.9355 316.02Z" fill="black"/>
</g>
<path opacity="0.3" d="M85.4485 280.849L87.6202 284.666C89.0627 283.537 89.3136 282.424 88.7883 281.531C88.1847 280.434 86.9538 280.481 85.4485 280.849Z" fill="white"/>
<path opacity="0.3" d="M78.6904 278.138C79.2784 279.18 80.4779 279.125 81.944 278.78L79.7645 274.94C78.3611 276.045 78.1573 277.189 78.6904 278.138Z" fill="white"/>
<path opacity="0.3" d="M63.8023 305.503L61.2307 309.061C62.8614 309.907 63.9747 309.672 64.6019 308.81C65.3153 307.823 64.7666 306.718 63.8023 305.503Z" fill="white"/>
<path opacity="0.3" d="M63.4573 298.27C62.7517 299.234 63.3005 300.3 64.2413 301.483L66.8363 297.909C65.2213 297.063 64.0923 297.353 63.4573 298.27Z" fill="white"/>
<path d="M109.86 262.323C120.473 261.273 128.225 251.823 127.175 241.215C126.125 230.606 116.671 222.858 106.058 223.907C95.4451 224.957 87.6929 234.407 88.7429 245.015C89.7928 255.623 99.2473 263.372 109.86 262.323Z" fill="#407BFF"/>
<path opacity="0.5" d="M109.86 262.323C120.473 261.273 128.225 251.823 127.175 241.215C126.125 230.606 116.671 222.858 106.058 223.907C95.4451 224.957 87.6929 234.407 88.7429 245.015C89.7928 255.623 99.2473 263.372 109.86 262.323Z" fill="white"/>
<path opacity="0.3" d="M109.157 244.848V249.244C110.968 248.97 111.736 248.123 111.736 247.058C111.759 245.843 110.646 245.271 109.157 244.848Z" fill="white"/>
<path opacity="0.3" d="M104.609 239.166C104.609 240.357 105.676 240.898 107.118 241.321V236.901C105.354 237.144 104.609 238.069 104.609 239.166Z" fill="white"/>
<path opacity="0.3" d="M107.973 226.588C104.717 226.588 101.533 227.554 98.8259 229.362C96.1184 231.17 94.0082 233.74 92.7621 236.748C91.516 239.755 91.1899 243.064 91.8251 246.256C92.4604 249.448 94.0285 252.381 96.331 254.682C98.6335 256.984 101.567 258.551 104.761 259.186C107.955 259.821 111.265 259.495 114.273 258.249C117.282 257.004 119.853 254.895 121.662 252.188C123.471 249.482 124.437 246.3 124.437 243.045C124.437 238.681 122.702 234.495 119.615 231.409C116.527 228.322 112.339 226.588 107.973 226.588ZM109.157 251.948V254.73H107.118V251.971C104.688 251.822 102.328 251.031 101.034 249.91L102.148 247.402C103.592 248.49 105.316 249.146 107.118 249.291V244.331C104.359 243.657 101.403 242.763 101.403 239.315C101.403 236.784 103.245 234.613 107.118 234.198V231.392H109.157V234.151C110.937 234.226 112.67 234.746 114.198 235.663L113.179 238.171C111.945 237.45 110.576 236.994 109.157 236.831V241.846C111.908 242.512 114.911 243.414 114.911 246.83C114.896 249.362 113.053 251.548 109.157 251.948Z" fill="white"/>
<path d="M153.108 283.506C156.697 284.808 159.82 287.145 162.081 290.221C164.342 293.297 165.639 296.975 165.81 300.788C165.98 304.601 165.016 308.379 163.038 311.645C161.061 314.91 158.159 317.516 154.7 319.133C151.24 320.75 147.379 321.306 143.604 320.729C139.829 320.153 136.31 318.471 133.491 315.896C130.673 313.321 128.681 309.968 127.769 306.261C126.856 302.555 127.064 298.661 128.365 295.073C129.229 292.689 130.555 290.498 132.266 288.627C133.977 286.755 136.041 285.239 138.339 284.165C140.636 283.091 143.123 282.48 145.658 282.367C148.192 282.254 150.723 282.641 153.108 283.506Z" fill="#407BFF"/>
<path opacity="0.5" d="M153.108 283.506C156.697 284.808 159.82 287.145 162.081 290.221C164.342 293.297 165.639 296.975 165.81 300.788C165.98 304.601 165.016 308.379 163.038 311.645C161.061 314.91 158.159 317.516 154.7 319.133C151.24 320.75 147.379 321.306 143.604 320.729C139.829 320.153 136.31 318.471 133.491 315.896C130.673 313.321 128.681 309.968 127.769 306.261C126.856 302.555 127.064 298.661 128.365 295.073C129.229 292.689 130.555 290.498 132.266 288.627C133.977 286.755 136.041 285.239 138.339 284.165C140.636 283.091 143.123 282.48 145.658 282.367C148.192 282.254 150.723 282.641 153.108 283.506Z" fill="white"/>
<path opacity="0.3" d="M148.608 301.154L152.739 302.651C153.1 300.856 152.567 299.845 151.563 299.516C150.419 299.054 149.509 299.892 148.608 301.154Z" fill="white"/>
<path opacity="0.3" d="M141.708 303.481C142.829 303.889 143.708 303.074 144.593 301.867L140.438 300.354C140.101 302.11 140.681 303.113 141.708 303.481Z" fill="white"/>
<path opacity="0.3" d="M131.03 296.036C129.924 299.096 129.751 302.415 130.531 305.573C131.311 308.732 133.011 311.588 135.415 313.782C137.818 315.975 140.818 317.407 144.036 317.897C147.254 318.387 150.544 317.912 153.492 316.534C156.44 315.155 158.913 312.934 160.599 310.151C162.284 307.368 163.107 304.148 162.963 300.898C162.818 297.648 161.714 294.513 159.788 291.891C157.862 289.268 155.202 287.275 152.143 286.162C150.109 285.422 147.948 285.091 145.785 285.187C143.622 285.283 141.499 285.804 139.538 286.722C137.576 287.639 135.816 288.934 134.356 290.532C132.896 292.13 131.766 294.001 131.03 296.036ZM155.279 303.567L157.898 304.516L157.208 306.436L154.613 305.495C153.805 307.53 152.407 309.277 150.599 310.511L148.608 308.606C150.12 307.618 151.322 306.222 152.073 304.578L147.369 302.886C145.801 305.237 143.951 307.721 140.705 306.545C138.353 305.683 136.871 303.207 137.843 299.438L135.28 298.481L135.977 296.569L138.564 297.502C139.242 295.857 140.32 294.408 141.7 293.286L143.715 295.096C142.614 296.007 141.716 297.139 141.081 298.419L145.785 300.127C147.353 297.776 149.203 295.237 152.449 296.413C154.817 297.275 156.236 299.775 155.279 303.567Z" fill="white"/>
<path d="M105.644 106.782V309.813C104.86 309.813 104.108 309.502 103.554 308.947C103 308.393 102.688 307.642 102.688 306.858V109.736C102.688 108.953 103 108.201 103.554 107.647C104.108 107.093 104.86 106.782 105.644 106.782Z" fill="#263238"/>
<path d="M104.68 102.918H102.649C102.073 102.918 101.607 103.385 101.607 103.961V114.313C101.607 114.888 102.073 115.355 102.649 115.355H104.68C105.256 115.355 105.723 114.888 105.723 114.313V103.961C105.723 103.385 105.256 102.918 104.68 102.918Z" fill="#263238"/>
<g opacity="0.4">
<path d="M105.73 103.968V114.321C105.729 114.458 105.701 114.593 105.648 114.719C105.595 114.845 105.517 114.959 105.419 115.055C105.322 115.151 105.206 115.227 105.079 115.279C104.953 115.33 104.817 115.356 104.68 115.355H102.649C102.374 115.355 102.11 115.246 101.915 115.053C101.719 114.859 101.609 114.596 101.607 114.321V103.968C101.607 103.691 101.716 103.425 101.911 103.229C102.107 103.032 102.372 102.92 102.649 102.918H104.703C104.978 102.925 105.239 103.038 105.431 103.234C105.623 103.43 105.73 103.694 105.73 103.968Z" fill="white"/>
</g>
<g opacity="0.2">
<path d="M104.233 103.968V114.321C104.231 114.596 104.12 114.859 103.925 115.053C103.729 115.246 103.465 115.355 103.19 115.355H102.649C102.374 115.355 102.11 115.246 101.915 115.053C101.719 114.859 101.609 114.596 101.607 114.321V103.968C101.607 103.691 101.716 103.425 101.911 103.229C102.107 103.032 102.372 102.92 102.649 102.918H103.19C103.467 102.92 103.733 103.032 103.928 103.229C104.123 103.425 104.233 103.691 104.233 103.968Z" fill="white"/>
</g>
<path d="M102.579 113.78H100.313C99.3398 113.78 98.4066 113.394 97.7185 112.706C97.0304 112.018 96.6438 111.085 96.6438 110.112V108.044C96.6459 107.071 97.0331 106.14 97.7208 105.452C98.4084 104.765 99.3405 104.378 100.313 104.376H102.579C102.743 104.376 102.901 104.441 103.017 104.557C103.133 104.673 103.198 104.831 103.198 104.995V105.998C103.198 106.162 103.133 106.32 103.017 106.436C102.901 106.552 102.743 106.617 102.579 106.617H100.313C99.9352 106.619 99.5734 106.77 99.3063 107.037C99.0391 107.304 98.8881 107.666 98.8861 108.044V110.112C98.8861 110.3 98.923 110.485 98.9947 110.658C99.0664 110.831 99.1715 110.988 99.304 111.121C99.4365 111.253 99.5938 111.358 99.7669 111.43C99.94 111.502 100.126 111.539 100.313 111.539H102.579C102.743 111.539 102.901 111.604 103.017 111.72C103.133 111.836 103.198 111.994 103.198 112.158V113.169C103.198 113.25 103.182 113.33 103.151 113.404C103.12 113.479 103.074 113.547 103.016 113.604C102.959 113.661 102.89 113.705 102.815 113.736C102.74 113.766 102.66 113.781 102.579 113.78Z" fill="#263238"/>
<g opacity="0.6">
<path d="M102.579 113.78H100.313C99.3398 113.78 98.4066 113.394 97.7185 112.706C97.0304 112.018 96.6438 111.085 96.6438 110.112V108.044C96.6459 107.071 97.0331 106.14 97.7208 105.452C98.4084 104.765 99.3405 104.378 100.313 104.376H102.579C102.743 104.376 102.901 104.441 103.017 104.557C103.133 104.673 103.198 104.831 103.198 104.995V105.998C103.198 106.162 103.133 106.32 103.017 106.436C102.901 106.552 102.743 106.617 102.579 106.617H100.313C99.9352 106.619 99.5734 106.77 99.3063 107.037C99.0391 107.304 98.8881 107.666 98.8861 108.044V110.112C98.8861 110.3 98.923 110.485 98.9947 110.658C99.0664 110.831 99.1715 110.988 99.304 111.121C99.4365 111.253 99.5938 111.358 99.7669 111.43C99.94 111.502 100.126 111.539 100.313 111.539H102.579C102.743 111.539 102.901 111.604 103.017 111.72C103.133 111.836 103.198 111.994 103.198 112.158V113.169C103.198 113.25 103.182 113.33 103.151 113.404C103.12 113.479 103.074 113.547 103.016 113.604C102.959 113.661 102.89 113.705 102.815 113.736C102.74 113.766 102.66 113.781 102.579 113.78Z" fill="white"/>
</g>
<path d="M98.9958 300.981L103.661 302.65V305.855L98.9958 306.78V300.981Z" fill="#263238"/>
<path d="M98.9958 291.875L103.661 293.552V296.757L98.9958 297.674V291.875Z" fill="#263238"/>
<path d="M98.9958 282.769L103.661 284.446V287.651L98.9958 288.576V282.769Z" fill="#263238"/>
<path d="M98.9958 273.67L103.661 275.34V278.553L98.9958 279.469V273.67Z" fill="#263238"/>
<path d="M98.9958 264.564L103.661 266.241V269.446L98.9958 270.363V264.564Z" fill="#263238"/>
<path d="M98.9958 255.466L103.661 257.135V260.34L98.9958 261.265V255.466Z" fill="#263238"/>
<path d="M98.9958 246.36L103.661 248.029V251.242L98.9958 252.159V246.36Z" fill="#263238"/>
<path d="M98.9958 237.254L103.661 238.931V242.136L98.9958 243.061V237.254Z" fill="#263238"/>
<path d="M98.9958 228.155L103.661 229.824V233.037L98.9958 233.954V228.155Z" fill="#263238"/>
<path d="M98.9958 219.049L103.661 220.726V223.931L98.9958 224.848V219.049Z" fill="#263238"/>
<path d="M98.9958 209.943L103.661 211.62V214.825L98.9958 215.75V209.943Z" fill="#263238"/>
<path d="M98.9958 200.845L103.661 202.514V205.727L98.9958 206.644V200.845Z" fill="#263238"/>
<path d="M98.9958 191.739L103.661 193.416V196.621L98.9958 197.545V191.739Z" fill="#263238"/>
<path d="M98.9958 182.64L103.661 184.309V187.515L98.9958 188.439V182.64Z" fill="#263238"/>
<path d="M98.9958 173.534L103.661 175.211V178.416L98.9958 179.333V173.534Z" fill="#263238"/>
<path d="M98.9958 164.428L103.661 166.105V169.31L98.9958 170.235V164.428Z" fill="#263238"/>
<path d="M98.9958 155.33L103.661 156.999V160.204L98.9958 161.129V155.33Z" fill="#263238"/>
<path d="M98.9958 146.224L103.661 147.901V151.106L98.9958 152.023V146.224Z" fill="#263238"/>
<path d="M98.9958 137.117L103.661 138.794V142L98.9958 142.924V137.117Z" fill="#263238"/>
<path d="M98.9958 128.019L103.661 129.688V132.901L98.9958 133.818V128.019Z" fill="#263238"/>
<path d="M98.9958 118.913L103.661 120.59V123.795L98.9958 124.72V118.913Z" fill="#263238"/>
<path d="M99.8425 86.916H94.1272C93.7195 86.916 93.4686 87.4097 93.5862 87.9818L97.7179 108.882C97.8198 109.407 98.1883 109.815 98.5646 109.815H102.351C102.728 109.815 102.971 109.407 102.916 108.882L100.721 87.9818C100.65 87.4097 100.25 86.916 99.8425 86.916ZM100.109 106.461C100.144 106.669 100.119 106.884 100.039 107.08C99.9055 106.896 99.817 106.684 99.7798 106.461L99.5446 104.893C99.5093 104.682 99.5337 104.465 99.6152 104.266C99.7528 104.45 99.8419 104.666 99.8739 104.893L100.109 106.461ZM97.2789 88.8438C97.6709 88.8438 98.0628 89.2983 98.1491 89.8547L98.3764 91.3829C98.4627 91.9393 98.2118 92.3938 97.812 92.3938C97.42 92.3938 97.0279 91.9393 96.9417 91.3829L96.7144 89.8547C96.6281 89.2983 96.879 88.8438 97.2789 88.8438Z" fill="#263238"/>
<path opacity="0.4" d="M99.8425 86.916H94.1272C93.7195 86.916 93.4686 87.4097 93.5862 87.9818L97.7179 108.882C97.8198 109.407 98.1883 109.815 98.5646 109.815H102.351C102.728 109.815 102.971 109.407 102.916 108.882L100.721 87.9818C100.65 87.4097 100.25 86.916 99.8425 86.916ZM100.109 106.461C100.144 106.669 100.119 106.884 100.039 107.08C99.9055 106.896 99.817 106.684 99.7798 106.461L99.5446 104.893C99.5093 104.682 99.5337 104.465 99.6152 104.266C99.7528 104.45 99.8419 104.666 99.8739 104.893L100.109 106.461ZM97.2789 88.8438C97.6709 88.8438 98.0628 89.2983 98.1491 89.8547L98.3764 91.3829C98.4627 91.9393 98.2118 92.3938 97.812 92.3938C97.42 92.3938 97.0279 91.9393 96.9417 91.3829L96.7144 89.8547C96.6281 89.2983 96.879 88.8438 97.2789 88.8438Z" fill="white"/>
<path opacity="0.2" d="M97.7179 108.882C97.8198 109.407 98.1883 109.815 98.5646 109.815H101.269C101.638 109.815 101.889 109.407 101.834 108.882L99.6309 87.9818C99.5681 87.4097 99.1761 86.916 98.7606 86.916H94.1272C93.7195 86.916 93.4686 87.4097 93.5862 87.9818L97.7179 108.882ZM100.07 106.461C100.156 107.009 99.9052 107.456 99.5211 107.456C99.1369 107.456 98.7371 107.009 98.6587 106.461L98.4235 104.893C98.3451 104.337 98.5881 103.89 98.9801 103.89C99.3721 103.89 99.7641 104.337 99.8347 104.893L100.07 106.461ZM96.1499 88.8438H97.2318C97.6238 88.8438 98.0158 89.2983 98.1021 89.8547L98.3294 91.3829C98.4156 91.9393 98.1648 92.3938 97.7649 92.3938H96.6909C96.291 92.3938 95.9068 91.9393 95.8127 91.3829L95.5854 89.8547C95.5462 89.2983 95.7971 88.8438 96.1969 88.8438H96.1499Z" fill="white"/>
<path d="M102.579 111.539H100.313C100.126 111.539 99.94 111.502 99.7669 111.43C99.5938 111.358 99.4365 111.253 99.304 111.121C99.1715 110.988 99.0664 110.831 98.9947 110.658C98.923 110.485 98.8861 110.3 98.8861 110.112V108.044C98.887 107.732 98.9903 107.428 99.18 107.181C99.3698 106.933 99.6355 106.754 99.9366 106.672V105.982L99.8112 105.7C99.8112 105.7 99.8112 105.7 99.8112 105.661C99.8112 105.622 99.6858 104.744 99.6779 104.674C99.6779 104.627 99.6779 104.58 99.6779 104.533C98.836 104.681 98.0729 105.12 97.5213 105.773C96.9698 106.426 96.6648 107.252 96.6595 108.106V110.175C96.6595 111.148 97.046 112.081 97.7341 112.768C98.4222 113.456 99.3555 113.843 100.329 113.843H102.594C102.675 113.844 102.756 113.829 102.831 113.798C102.906 113.768 102.974 113.723 103.032 113.666C103.089 113.61 103.135 113.542 103.166 113.467C103.198 113.392 103.214 113.312 103.214 113.231V112.22C103.223 112.133 103.213 112.044 103.185 111.96C103.157 111.877 103.111 111.8 103.051 111.736C102.991 111.671 102.918 111.62 102.836 111.586C102.755 111.552 102.667 111.536 102.579 111.539Z" fill="#263238"/>
<g opacity="0.6">
<path d="M102.579 111.539H100.313C100.126 111.539 99.94 111.502 99.7669 111.43C99.5938 111.358 99.4365 111.253 99.304 111.121C99.1715 110.988 99.0664 110.831 98.9947 110.658C98.923 110.485 98.8861 110.3 98.8861 110.112V108.044C98.887 107.732 98.9903 107.428 99.18 107.181C99.3698 106.933 99.6355 106.754 99.9366 106.672V105.982L99.8112 105.7C99.8112 105.7 99.8112 105.7 99.8112 105.661C99.8112 105.622 99.6858 104.744 99.6779 104.674C99.6779 104.627 99.6779 104.58 99.6779 104.533C98.836 104.681 98.0729 105.12 97.5213 105.773C96.9698 106.426 96.6648 107.252 96.6595 108.106V110.175C96.6595 111.148 97.046 112.081 97.7341 112.768C98.4222 113.456 99.3555 113.843 100.329 113.843H102.594C102.675 113.844 102.756 113.829 102.831 113.798C102.906 113.768 102.974 113.723 103.032 113.666C103.089 113.61 103.135 113.542 103.166 113.467C103.198 113.392 103.214 113.312 103.214 113.231V112.22C103.223 112.133 103.213 112.044 103.185 111.96C103.157 111.877 103.111 111.8 103.051 111.736C102.991 111.671 102.918 111.62 102.836 111.586C102.755 111.552 102.667 111.536 102.579 111.539Z" fill="white"/>
</g>
<path d="M222.782 97.3152H112.457C108.309 97.3152 104.946 100.676 104.946 104.823V315.157C104.946 319.304 108.309 322.665 112.457 322.665H222.782C226.93 322.665 230.292 319.304 230.292 315.157V104.823C230.292 100.676 226.93 97.3152 222.782 97.3152Z" fill="#263238"/>
<path opacity="0.3" d="M222.782 97.3152H112.457C108.309 97.3152 104.946 100.676 104.946 104.823V315.157C104.946 319.304 108.309 322.665 112.457 322.665H222.782C226.93 322.665 230.292 319.304 230.292 315.157V104.823C230.292 100.676 226.93 97.3152 222.782 97.3152Z" fill="white"/>
<path d="M226.059 104.862V314.726C226.058 315.135 225.975 315.539 225.817 315.915C225.658 316.292 225.426 316.633 225.134 316.919C224.842 317.204 224.496 317.429 224.117 317.581C223.737 317.732 223.331 317.806 222.923 317.798H111.955C111.586 317.803 111.22 317.733 110.878 317.592C110.536 317.452 110.226 317.244 109.967 316.982C109.707 316.719 109.503 316.407 109.366 316.064C109.23 315.721 109.164 315.354 109.172 314.985V104.619C109.144 103.966 109.376 103.328 109.817 102.845C110.257 102.362 110.871 102.073 111.524 102.041H139.27C139.659 102.048 140.037 102.171 140.355 102.394C140.674 102.618 140.918 102.931 141.057 103.295L142.21 106.116C142.349 106.475 142.594 106.785 142.911 107.004C143.228 107.223 143.604 107.342 143.99 107.346H191.233C191.617 107.344 191.992 107.227 192.309 107.01C192.626 106.794 192.871 106.488 193.013 106.131L194.166 103.295C194.305 102.932 194.55 102.619 194.868 102.396C195.187 102.172 195.564 102.049 195.953 102.041H223.307C224.044 102.055 224.747 102.359 225.262 102.887C225.777 103.415 226.063 104.124 226.059 104.862Z" fill="#263238"/>
<path opacity="0.6" d="M167.596 102.354C167.596 102.662 167.505 102.964 167.334 103.221C167.163 103.478 166.921 103.678 166.637 103.798C166.352 103.918 166.039 103.951 165.736 103.894C165.433 103.836 165.154 103.691 164.933 103.476C164.712 103.26 164.56 102.985 164.495 102.683C164.43 102.382 164.455 102.068 164.568 101.781C164.681 101.494 164.876 101.247 165.128 101.07C165.381 100.893 165.68 100.795 165.989 100.787C166.408 100.787 166.811 100.951 167.111 101.243C167.412 101.536 167.586 101.935 167.596 102.354Z" fill="white"/>
<path opacity="0.6" d="M170.842 102.354C170.842 102.557 170.781 102.756 170.668 102.924C170.556 103.093 170.395 103.225 170.208 103.303C170.02 103.38 169.813 103.401 169.614 103.361C169.415 103.321 169.232 103.224 169.088 103.08C168.945 102.936 168.847 102.754 168.807 102.554C168.768 102.355 168.788 102.149 168.866 101.961C168.943 101.774 169.075 101.613 169.244 101.501C169.413 101.388 169.611 101.328 169.814 101.328C170.087 101.328 170.348 101.436 170.541 101.628C170.733 101.821 170.842 102.082 170.842 102.354Z" fill="white"/>
<path d="M224.373 115.473H110.858V307.995H224.373V115.473Z" fill="#407BFF"/>
<path opacity="0.6" d="M224.373 115.473H110.858V307.995H224.373V115.473Z" fill="white"/>
<path d="M218.203 264.878H117.028C115.322 264.878 113.939 266.26 113.939 267.965V285.221C113.939 286.927 115.322 288.309 117.028 288.309H218.203C219.909 288.309 221.292 286.927 221.292 285.221V267.965C221.292 266.26 219.909 264.878 218.203 264.878Z" fill="#0ACF83"/>
<path d="M218.203 231.063H117.028C115.322 231.063 113.939 232.445 113.939 234.15V257.801C113.939 259.506 115.322 260.889 117.028 260.889H218.203C219.909 260.889 221.292 259.506 221.292 257.801V234.15C221.292 232.445 219.909 231.063 218.203 231.063Z" fill="white"/>
<path d="M218.203 145.503H117.028C115.322 145.503 113.939 146.885 113.939 148.59V224.778C113.939 226.483 115.322 227.865 117.028 227.865H218.203C219.909 227.865 221.292 226.483 221.292 224.778V148.59C221.292 146.885 219.909 145.503 218.203 145.503Z" fill="white"/>
<path d="M218.203 119.14H117.028C115.322 119.14 113.939 120.523 113.939 122.228V139.484C113.939 141.189 115.322 142.572 117.028 142.572H218.203C219.909 142.572 221.292 141.189 221.292 139.484V122.228C221.292 120.523 219.909 119.14 218.203 119.14Z" fill="#0ACF83"/>
<g opacity="0.5">
<path d="M168.427 245.49L169.446 246.054L169.093 246.658L168.058 246.054V247.206H167.423V246.062L166.388 246.658L166.036 246.054L167.063 245.49L166.036 244.918L166.388 244.307L167.423 244.91V243.766H168.105V244.918L169.14 244.307L169.493 244.918L168.427 245.49Z" fill="black"/>
<path d="M172.331 245.49L173.358 246.054L173.005 246.658L171.963 246.054V247.206H171.281V246.062L170.246 246.658L169.885 246.054L170.92 245.49L169.885 244.918L170.246 244.307L171.281 244.91V243.766H171.963V244.918L173.005 244.307L173.358 244.918L172.331 245.49Z" fill="black"/>
<path d="M176.243 245.49L177.263 246.054L176.918 246.658L175.875 246.054V247.206H175.193V246.062L174.166 246.658L173.805 246.054L174.832 245.49L173.805 244.918L174.166 244.307L175.193 244.91V243.766H175.875V244.918L176.918 244.307L177.263 244.918L176.243 245.49Z" fill="black"/>
<path d="M180.148 245.49L181.175 246.054L180.822 246.658L179.779 246.054V247.206H179.097V246.062L178.062 246.658L177.702 246.054L178.736 245.49L177.702 244.918L178.062 244.307L179.097 244.91V243.766H179.779V244.918L180.822 244.307L181.175 244.918L180.148 245.49Z" fill="black"/>
<path d="M186.357 245.49L187.376 246.054L187.031 246.658L185.988 246.054V247.206H185.306V246.062L184.279 246.658L183.919 246.054L184.946 245.49L183.919 244.918L184.279 244.307L185.306 244.91V243.766H185.988V244.918L187.031 244.307L187.376 244.918L186.357 245.49Z" fill="black"/>
<path d="M190.261 245.49L191.288 246.054L190.935 246.658L189.893 246.054V247.206H189.211V246.062L188.176 246.658L187.815 246.054L188.85 245.49L187.815 244.918L188.176 244.307L189.211 244.91V243.766H189.893V244.918L190.935 244.307L191.288 244.918L190.261 245.49Z" fill="black"/>
<path d="M194.173 245.49L195.2 246.054L194.848 246.658L193.805 246.054V247.206H193.123V246.062L192.096 246.658L191.735 246.054L192.77 245.49L191.735 244.918L192.096 244.307L193.123 244.91V243.766H193.805V244.918L194.848 244.307L195.2 244.918L194.173 245.49Z" fill="black"/>
<path d="M198.086 245.49L199.105 246.054L198.76 246.658L197.717 246.054V247.206H197.035V246.062L196.008 246.658L195.647 246.054L196.674 245.49L195.647 244.918L196.008 244.307L197.035 244.91V243.766H197.717V244.918L198.76 244.307L199.105 244.918L198.086 245.49Z" fill="black"/>
<path d="M204.271 245.49L205.298 246.054L204.946 246.658L203.903 246.054V247.206H203.221V246.062L202.194 246.658L201.833 246.054L202.868 245.49L201.833 244.918L202.194 244.307L203.221 244.91V243.766H203.903V244.918L204.946 244.307L205.298 244.918L204.271 245.49Z" fill="black"/>
<path d="M208.191 245.49L209.211 246.054L208.866 246.658L207.823 246.054V247.206H207.141V246.062L206.114 246.658L205.753 246.054L206.78 245.49L205.753 244.918L206.114 244.307L207.141 244.91V243.766H207.823V244.918L208.866 244.307L209.211 244.918L208.191 245.49Z" fill="black"/>
<path d="M212.111 245.49L213.138 246.054L212.786 246.658L211.743 246.054V247.206H211.061V246.062L210.026 246.658L209.665 246.054L210.7 245.49L209.665 244.918L210.026 244.307L211.061 244.91V243.766H211.743V244.918L212.786 244.307L213.138 244.918L212.111 245.49Z" fill="black"/>
</g>
<path d="M139.231 239.158H123.998C122.872 239.158 121.959 240.07 121.959 241.195V249.91C121.959 251.035 122.872 251.947 123.998 251.947H139.231C140.356 251.947 141.269 251.035 141.269 249.91V241.195C141.269 240.07 140.356 239.158 139.231 239.158Z" fill="#407BFF"/>
<g opacity="0.5">
<path d="M141.269 246.054H121.959V249.244H141.269V246.054Z" fill="black"/>
</g>
<g opacity="0.5">
<path d="M139.717 243.774C139.718 243.965 139.663 244.152 139.558 244.311C139.453 244.471 139.303 244.596 139.127 244.67C138.951 244.744 138.757 244.764 138.569 244.728C138.382 244.692 138.209 244.6 138.073 244.466C137.938 244.331 137.845 244.16 137.807 243.972C137.769 243.785 137.788 243.591 137.861 243.414C137.934 243.238 138.057 243.087 138.216 242.981C138.375 242.874 138.561 242.818 138.752 242.818C139.007 242.818 139.251 242.918 139.432 243.097C139.612 243.276 139.715 243.519 139.717 243.774Z" fill="black"/>
</g>
<path d="M138.455 243.774C138.456 243.965 138.401 244.152 138.295 244.312C138.19 244.472 138.039 244.597 137.863 244.671C137.686 244.744 137.492 244.764 137.304 244.727C137.116 244.69 136.944 244.598 136.808 244.463C136.673 244.328 136.581 244.155 136.544 243.968C136.507 243.78 136.527 243.585 136.601 243.409C136.675 243.233 136.8 243.082 136.959 242.977C137.119 242.871 137.307 242.816 137.498 242.818C137.752 242.818 137.995 242.918 138.174 243.098C138.354 243.277 138.455 243.52 138.455 243.774Z" fill="white"/>
<path d="M213.742 127.87H205.996C205.836 127.821 205.697 127.721 205.597 127.586C205.498 127.452 205.445 127.289 205.445 127.122C205.445 126.955 205.498 126.792 205.597 126.657C205.697 126.522 205.836 126.423 205.996 126.373H213.742C213.902 126.423 214.042 126.522 214.141 126.657C214.24 126.792 214.294 126.955 214.294 127.122C214.294 127.289 214.24 127.452 214.141 127.586C214.042 127.721 213.902 127.821 213.742 127.87Z" fill="white"/>
<path d="M213.742 135.346H205.996C205.836 135.297 205.697 135.197 205.597 135.063C205.498 134.928 205.445 134.765 205.445 134.598C205.445 134.431 205.498 134.268 205.597 134.133C205.697 133.998 205.836 133.899 205.996 133.849H213.742C213.902 133.899 214.042 133.998 214.141 134.133C214.24 134.268 214.294 134.431 214.294 134.598C214.294 134.765 214.24 134.928 214.141 135.063C214.042 135.197 213.902 135.297 213.742 135.346Z" fill="white"/>
<path d="M213.742 131.608H205.996C205.836 131.559 205.697 131.459 205.597 131.325C205.498 131.19 205.445 131.027 205.445 130.86C205.445 130.693 205.498 130.53 205.597 130.395C205.697 130.26 205.836 130.161 205.996 130.111H213.742C213.902 130.161 214.042 130.26 214.141 130.395C214.24 130.53 214.294 130.693 214.294 130.86C214.294 131.027 214.24 131.19 214.141 131.325C214.042 131.459 213.902 131.559 213.742 131.608Z" fill="white"/>
<g opacity="0.3">
<path d="M156.447 194.669H123.441C122.966 194.639 122.52 194.428 122.195 194.081C121.869 193.734 121.688 193.276 121.688 192.8C121.688 192.325 121.869 191.867 122.195 191.52C122.52 191.172 122.966 190.962 123.441 190.931H156.447C156.922 190.962 157.368 191.172 157.693 191.52C158.019 191.867 158.2 192.325 158.2 192.8C158.2 193.276 158.019 193.734 157.693 194.081C157.368 194.428 156.922 194.639 156.447 194.669Z" fill="black"/>
<path d="M170.661 205.131H123.441C122.966 205.101 122.52 204.89 122.195 204.543C121.869 204.196 121.688 203.738 121.688 203.262C121.688 202.787 121.869 202.329 122.195 201.981C122.52 201.634 122.966 201.424 123.441 201.393H170.661C171.136 201.424 171.582 201.634 171.907 201.981C172.233 202.329 172.414 202.787 172.414 203.262C172.414 203.738 172.233 204.196 171.907 204.543C171.582 204.89 171.136 205.101 170.661 205.131Z" fill="black"/>
<path d="M211.782 205.131H198.964C198.708 205.148 198.452 205.112 198.21 205.025C197.969 204.939 197.748 204.804 197.561 204.629C197.374 204.454 197.225 204.242 197.123 204.007C197.021 203.772 196.969 203.518 196.969 203.262C196.969 203.006 197.021 202.753 197.123 202.518C197.225 202.283 197.374 202.071 197.561 201.896C197.748 201.721 197.969 201.586 198.21 201.499C198.452 201.413 198.708 201.377 198.964 201.393H211.782C212.257 201.424 212.703 201.634 213.028 201.981C213.354 202.329 213.535 202.787 213.535 203.262C213.535 203.738 213.354 204.196 213.028 204.543C212.703 204.89 212.257 205.101 211.782 205.131Z" fill="black"/>
<path d="M145.236 212.607H123.441C122.966 212.577 122.52 212.366 122.195 212.019C121.869 211.672 121.688 211.214 121.688 210.738C121.688 210.263 121.869 209.805 122.195 209.458C122.52 209.11 122.966 208.9 123.441 208.869H145.236C145.492 208.853 145.748 208.889 145.99 208.975C146.231 209.062 146.452 209.197 146.639 209.372C146.826 209.547 146.975 209.759 147.077 209.994C147.178 210.229 147.231 210.482 147.231 210.738C147.231 210.995 147.178 211.248 147.077 211.483C146.975 211.718 146.826 211.93 146.639 212.105C146.452 212.28 146.231 212.415 145.99 212.502C145.748 212.588 145.492 212.624 145.236 212.607Z" fill="black"/>
<path d="M211.782 212.607H193.75C193.275 212.577 192.83 212.366 192.504 212.019C192.179 211.672 191.997 211.214 191.997 210.738C191.997 210.263 192.179 209.805 192.504 209.458C192.83 209.11 193.275 208.9 193.75 208.869H211.782C212.257 208.9 212.703 209.11 213.028 209.458C213.354 209.805 213.535 210.263 213.535 210.738C213.535 211.214 213.354 211.672 213.028 212.019C212.703 212.366 212.257 212.577 211.782 212.607Z" fill="black"/>
<path d="M166.177 220.076H123.441C122.946 220.076 122.471 219.879 122.122 219.529C121.772 219.18 121.575 218.705 121.575 218.211C121.575 217.716 121.772 217.242 122.122 216.892C122.471 216.542 122.946 216.345 123.441 216.345H166.177C166.672 216.345 167.146 216.542 167.496 216.892C167.846 217.242 168.043 217.716 168.043 218.211C168.043 218.705 167.846 219.18 167.496 219.529C167.146 219.879 166.672 220.076 166.177 220.076Z" fill="black"/>
<path d="M211.782 220.076H201.206C200.711 220.076 200.236 219.879 199.887 219.529C199.537 219.18 199.34 218.705 199.34 218.211C199.34 217.716 199.537 217.242 199.887 216.892C200.236 216.542 200.711 216.345 201.206 216.345H211.782C212.277 216.345 212.752 216.542 213.102 216.892C213.451 217.242 213.648 217.716 213.648 218.211C213.648 218.705 213.451 219.18 213.102 219.529C212.752 219.879 212.277 220.076 211.782 220.076Z" fill="black"/>
</g>
<path d="M178.927 180.396C185.173 174.152 185.173 164.03 178.927 157.787C172.681 151.544 162.554 151.544 156.309 157.787C150.063 164.03 150.063 174.152 156.309 180.396C162.554 186.639 172.681 186.639 178.927 180.396Z" fill="#5DA668"/>
<path opacity="0.6" d="M122.053 110.489H123.496V108.569H122.053V110.489Z" fill="white"/>
<path opacity="0.6" d="M119.701 110.489H121.144V107.926H119.701V110.489Z" fill="white"/>
<path opacity="0.6" d="M117.349 110.496H118.792V107.291H117.349V110.496Z" fill="white"/>
<path opacity="0.6" d="M114.997 110.496H116.44V106.649H114.997V110.496Z" fill="white"/>
<path opacity="0.6" d="M212.825 107.871H211.97V109.791H212.825V107.871Z" fill="white"/>
<path opacity="0.6" d="M213.421 110.496H220.241V107.166H213.421V110.496Z" fill="white"/>
<path opacity="0.1" d="M219.836 102C209.488 130.635 175.877 209.275 109.002 241.351V104.578C108.975 103.925 109.206 103.288 109.647 102.805C110.087 102.322 110.701 102.033 111.354 102H139.1C139.489 102.007 139.867 102.13 140.186 102.354C140.504 102.577 140.748 102.891 140.887 103.254L142.04 106.075C142.18 106.434 142.424 106.744 142.741 106.963C143.058 107.183 143.434 107.302 143.82 107.305H191.063C191.447 107.303 191.822 107.186 192.139 106.97C192.456 106.753 192.701 106.447 192.843 106.091L193.996 103.254C194.136 102.891 194.38 102.578 194.699 102.355C195.017 102.132 195.394 102.008 195.783 102H219.836Z" fill="white"/>
<path opacity="0.1" d="M226.059 204.92V314.726C226.058 315.135 225.975 315.539 225.817 315.915C225.658 316.292 225.426 316.633 225.134 316.919C224.842 317.204 224.496 317.429 224.117 317.581C223.737 317.732 223.331 317.806 222.923 317.798H111.955C111.586 317.803 111.22 317.733 110.878 317.592C110.536 317.452 110.226 317.244 109.967 316.982C109.707 316.719 109.503 316.407 109.366 316.064C109.23 315.721 109.164 315.354 109.172 314.985V265.066C140.054 224.433 193.115 210.037 226.059 204.92Z" fill="white"/>
<path d="M168.62 178.81C168.28 178.93 167.72 178.93 167.38 178.81C164.48 177.82 158 173.69 158 166.69C158 163.6 160.49 161.1 163.56 161.1C165.38 161.1 166.99 161.98 168 163.34C168.514 162.646 169.183 162.082 169.954 161.693C170.725 161.304 171.576 161.101 172.44 161.1C175.51 161.1 178 163.6 178 166.69C178 173.69 171.52 177.82 168.62 178.81Z" stroke="white" stroke-width="1.5" stroke-linecap="round" stroke-linejoin="round"/>
<path d="M284.106 77.7628H261.582C259.742 77.7628 257.977 78.4935 256.676 79.7941C255.375 81.0948 254.644 82.8588 254.644 84.6982V104.29C254.644 106.129 255.375 107.893 256.676 109.194C257.977 110.494 259.742 111.225 261.582 111.225H268.16L262.672 122.11L272.864 111.225H284.145C285.056 111.225 285.958 111.046 286.8 110.697C287.641 110.348 288.405 109.837 289.049 109.193C289.693 108.549 290.203 107.785 290.551 106.943C290.899 106.102 291.077 105.2 291.076 104.29V84.6982C291.077 83.7845 290.897 82.8796 290.547 82.0357C290.197 81.1917 289.683 80.4253 289.035 79.7807C288.387 79.1361 287.618 78.6259 286.772 78.2796C285.926 77.9333 285.02 77.7576 284.106 77.7628Z" fill="#407BFF"/>
<path opacity="0.7" d="M284.106 77.7628H261.582C259.742 77.7628 257.977 78.4935 256.676 79.7941C255.375 81.0948 254.644 82.8588 254.644 84.6982V104.29C254.644 106.129 255.375 107.893 256.676 109.194C257.977 110.494 259.742 111.225 261.582 111.225H268.16L262.672 122.11L272.864 111.225H284.145C285.056 111.225 285.958 111.046 286.8 110.697C287.641 110.348 288.405 109.837 289.049 109.193C289.693 108.549 290.203 107.785 290.551 106.943C290.899 106.102 291.077 105.2 291.076 104.29V84.6982C291.077 83.7845 290.897 82.8796 290.547 82.0357C290.197 81.1917 289.683 80.4253 289.035 79.7807C288.387 79.1361 287.618 78.6259 286.772 78.2796C285.926 77.9333 285.02 77.7576 284.106 77.7628Z" fill="#9FFFDA"/>
<path d="M280.744 102.306C285.11 97.942 285.11 90.8664 280.744 86.5023C276.378 82.1382 269.3 82.1382 264.934 86.5023C260.568 90.8664 260.568 97.942 264.934 102.306C269.3 106.67 276.378 106.67 280.744 102.306Z" fill="#0ACF83"/>
<path d="M271.696 99.3997C271.547 99.4001 271.399 99.368 271.264 99.3058C271.128 99.2435 271.008 99.1526 270.912 99.0392L266.521 93.8749C266.344 93.667 266.258 93.3975 266.28 93.1257C266.302 92.8538 266.431 92.6018 266.639 92.4251C266.847 92.2485 267.116 92.1616 267.388 92.1836C267.66 92.2057 267.912 92.3348 268.089 92.5427L271.696 96.7901L277.638 89.7372C277.815 89.5293 278.067 89.4002 278.339 89.3781C278.611 89.3561 278.881 89.4429 279.089 89.6196C279.297 89.7963 279.426 90.0483 279.448 90.3202C279.47 90.592 279.383 90.8615 279.206 91.0694L272.48 99.0392C272.384 99.1534 272.263 99.2449 272.128 99.3072C271.992 99.3696 271.845 99.4011 271.696 99.3997Z" fill="white"/>
<path d="M255.953 149.452C258.461 155.157 261.276 161.991 264.404 166.881C264.107 166.702 263.77 166.6 263.424 166.583C262.703 166.583 262.64 166.818 262.742 166.748C263.957 165.964 264.89 164.561 265.878 163.159C267.587 160.651 269.171 157.869 270.66 155.134C270.884 154.713 271.258 154.392 271.707 154.234C272.157 154.076 272.65 154.093 273.088 154.281C273.525 154.47 273.876 154.816 274.07 155.252C274.264 155.687 274.286 156.179 274.133 156.631C273.035 159.757 271.726 162.804 270.213 165.753C268.645 168.824 265.298 174.537 260.97 171.818C258.744 170.125 257.489 167.665 256.078 165.549C253.506 161.341 251.202 157.07 248.975 152.673C246.78 147.971 253.679 144.727 255.905 149.476L255.953 149.452Z" fill="#EBC0BB"/>
<path d="M253.726 146.874C257.144 147.086 262.867 157.845 262.867 157.845L252.393 165.604C252.393 165.604 250.527 149.75 250.527 149.727C250.527 149.703 253.726 146.874 253.726 146.874Z" fill="#263238"/>
<path opacity="0.7" d="M262.86 157.869L257.646 161.732L254.04 164.405L252.393 165.627C252.393 165.627 251.264 156.035 250.762 151.756C250.613 150.526 250.527 149.735 250.527 149.727C250.527 149.719 253.734 146.882 253.734 146.882C256.548 147.054 260.954 154.452 262.358 157.015C262.687 157.548 262.86 157.869 262.86 157.869Z" fill="white"/>
<path d="M262.86 156.725L264.333 158.394L254.769 165.627L253.122 162.845L262.86 156.725Z" fill="#263238"/>
<path opacity="0.8" d="M264.326 158.394L257.991 163.19L254.769 165.619L254.04 164.397L253.122 162.845L257.16 160.306L262.397 157.007L262.86 156.725L264.326 158.394Z" fill="white"/>
<path d="M264.349 154.436C264.328 154.508 264.323 154.584 264.335 154.658C264.346 154.732 264.374 154.803 264.416 154.865C264.458 154.927 264.513 154.979 264.577 155.017C264.642 155.056 264.714 155.08 264.788 155.087L270.551 155.871C270.712 155.891 270.876 155.853 271.012 155.762C271.147 155.671 271.245 155.534 271.288 155.377L274.133 144.186C274.157 144.11 274.165 144.03 274.156 143.951C274.147 143.871 274.122 143.795 274.082 143.726C274.043 143.657 273.989 143.596 273.925 143.549C273.861 143.501 273.788 143.468 273.71 143.45L267.94 142.666C267.764 142.659 267.591 142.712 267.449 142.816C267.306 142.92 267.203 143.068 267.156 143.238L264.349 154.436Z" fill="#263238"/>
<path opacity="0.5" d="M267.846 143.254L264.961 154.554C264.935 154.619 264.924 154.69 264.931 154.76C264.937 154.83 264.96 154.898 264.997 154.957C265.035 155.017 265.086 155.067 265.146 155.103C265.207 155.139 265.275 155.16 265.345 155.165L270.229 155.831C270.558 155.878 271.186 155.777 271.264 155.463L274.157 144.116C274.235 143.794 273.71 143.465 273.373 143.418L268.489 142.744C268.337 142.733 268.187 142.779 268.067 142.873C267.948 142.967 267.869 143.103 267.846 143.254Z" fill="white"/>
<path d="M274.306 156.231L273.585 149.727L269.359 154.632C269.359 154.632 268.449 158.833 272.268 158.551L274.306 156.231Z" fill="#EEC1BB"/>
<path d="M269.477 148.504L268.081 153.284L269.359 154.632L273.585 149.727L269.477 148.504Z" fill="#EEC1BB"/>
<path opacity="0.1" d="M259.763 161.842L254.769 165.627L254.04 164.405L252.393 165.627C252.393 165.627 251.264 156.035 250.762 151.756C251.719 152.509 258.869 153.598 259.763 161.842Z" fill="black"/>
<path d="M231.131 265.207L233.232 269.219C233.232 269.219 235.028 268.263 237.897 266.696C238.681 266.249 239.622 265.756 240.602 265.207C243.307 263.718 246.56 261.908 250.01 259.964L252.26 258.671C264.177 251.846 273.961 245.294 273.961 241.713C273.961 235.71 269.61 224.292 263.463 212.866C259.355 205.233 255.937 199.089 255.937 199.089L241.331 208.023C241.331 208.023 246.309 214.669 251.405 221.988C257.348 230.522 263.455 239.957 262.052 240.898C260.986 241.611 255.561 245.858 249.555 250.607L248.465 251.462C245.227 254.024 241.88 256.673 238.995 258.969L236.643 260.811L231.131 265.207Z" fill="#EEC1BB"/>
<path opacity="0.2" d="M241.323 208.023C241.323 208.023 246.302 214.669 251.398 221.988L263.455 212.851C259.347 205.218 255.929 199.074 255.929 199.074L241.323 208.023Z" fill="black"/>
<path opacity="0.2" d="M236.658 260.811L237.897 266.696C241.48 264.737 246.741 261.837 252.252 258.671C251.311 255.834 250.237 252.637 249.547 250.607C245.039 254.142 240.241 257.966 236.658 260.811Z" fill="black"/>
<path d="M224.694 215.445L227.501 224.018L228.081 225.781L232.37 238.829L232.856 240.326L235.694 248.946L238.987 258.977L240.508 263.616C240.508 264.141 240.555 264.674 240.602 265.183C242.044 287.345 253.585 316.31 253.585 316.31L257.709 315.189C256.25 297.784 253.114 277.495 250.002 259.941C249.477 257.026 248.967 254.181 248.434 251.438C248.144 249.871 247.862 248.39 247.579 246.924C246.984 243.79 246.427 240.859 245.87 238.116C245.604 236.815 245.361 235.569 245.086 234.354C244.483 231.361 243.942 228.696 243.456 226.408C242.969 224.12 242.585 222.231 242.272 220.781C241.817 218.673 241.558 217.498 241.558 217.498L224.694 215.445Z" fill="#EEC1BB"/>
<path d="M236.094 260.905C236.635 260.905 236.313 267.487 236.313 267.487C236.313 267.487 232.26 271.625 231.398 275.543C230.535 279.462 228.144 277.322 228.073 272.934C228.003 268.545 227.956 265.199 227.909 262.08C227.862 258.961 230.551 260.858 236.094 260.905Z" fill="#263238"/>
<path d="M234.683 270.975C234.783 270.022 235.049 269.094 235.467 268.232C235.475 268.209 235.492 268.189 235.514 268.177C235.534 268.167 235.557 268.162 235.58 268.162C235.603 268.162 235.626 268.167 235.647 268.177C235.718 268.177 237.215 268.726 237.638 269.611C237.7 269.745 237.732 269.891 237.732 270.038C237.732 270.186 237.7 270.331 237.638 270.465C237.505 270.763 237.317 270.912 237.089 270.904C236.862 270.896 236.392 270.426 236.102 269.893C236.195 270.39 236.146 270.904 235.961 271.374C235.916 271.46 235.854 271.536 235.778 271.597C235.703 271.658 235.615 271.702 235.521 271.727C235.403 271.778 235.271 271.791 235.145 271.764C235.019 271.737 234.904 271.673 234.816 271.578C234.706 271.397 234.659 271.185 234.683 270.975ZM235.592 268.835C235.2 269.807 234.855 271.022 235.114 271.327C235.114 271.327 235.208 271.429 235.459 271.367C235.508 271.351 235.554 271.326 235.593 271.292C235.632 271.259 235.664 271.217 235.686 271.171C235.888 270.403 235.869 269.593 235.631 268.835H235.592ZM237.419 269.979C237.42 269.89 237.401 269.802 237.364 269.721C237.017 269.206 236.514 268.816 235.929 268.608C236.313 269.58 236.846 270.512 237.137 270.528C237.231 270.528 237.317 270.379 237.356 270.285C237.403 270.19 237.425 270.085 237.419 269.979Z" fill="#0ACF83"/>
<path d="M252.417 314.468C252.417 313.935 259.002 314.35 259.002 314.35C259.002 314.35 263.071 318.465 266.991 319.429C270.911 320.392 268.724 322.704 264.333 322.704H253.452C250.331 322.665 252.283 320.008 252.417 314.468Z" fill="#263238"/>
<path d="M262.46 316.035C261.509 315.917 260.586 315.636 259.731 315.205L259.677 315.158V315.118C259.661 315.075 259.661 315.028 259.677 314.985C259.677 314.922 260.249 313.418 261.143 313.018C261.277 312.956 261.422 312.924 261.57 312.924C261.717 312.924 261.863 312.956 261.997 313.018C262.295 313.159 262.444 313.347 262.428 313.567C262.428 313.912 261.942 314.264 261.401 314.546C261.898 314.459 262.41 314.516 262.875 314.711C262.962 314.754 263.039 314.816 263.1 314.892C263.161 314.967 263.204 315.055 263.228 315.15C263.276 315.269 263.286 315.401 263.258 315.526C263.23 315.652 263.165 315.767 263.071 315.855C262.896 315.987 262.679 316.051 262.46 316.035ZM260.335 315.087C261.307 315.502 262.507 315.871 262.82 315.612C262.82 315.612 262.93 315.518 262.86 315.259C262.846 315.21 262.823 315.164 262.79 315.125C262.758 315.086 262.717 315.054 262.671 315.032C262.201 314.727 261.072 314.93 260.335 315.087ZM261.511 313.285C261.419 313.285 261.329 313.303 261.245 313.339C260.726 313.676 260.331 314.171 260.116 314.75C261.096 314.382 262.036 313.865 262.052 313.575C262.052 313.481 261.903 313.394 261.817 313.355C261.719 313.308 261.612 313.284 261.503 313.285H261.511Z" fill="#0ACF83"/>
<path opacity="0.7" d="M247.713 220.193L248.661 221.087L262.86 211.464L261.064 207.091C261.09 208.632 260.865 210.167 260.398 211.636C259.622 213.462 250.214 218.799 247.713 220.193Z" fill="white"/>
<path opacity="0.2" d="M224.694 215.445L227.501 224.018C235.263 225.859 240.273 226.455 243.51 226.431C243.032 224.151 242.64 222.255 242.327 220.805C241.872 218.697 241.613 217.521 241.613 217.521L224.694 215.445Z" fill="black"/>
<path d="M262.852 211.471L248.661 221.095L247.713 220.201L244.49 217.161V224.77L224.89 221.259C221.919 208.149 222.303 198.369 223.581 191.692C224.182 188.322 225.254 185.054 226.764 181.982L227.015 179.498L253.546 182.256L253.797 183.988L255.082 192.554L261.049 207.13L262.852 211.471Z" fill="#0ACF83"/>
<path opacity="0.2" d="M244.49 217.161V208.697C244.49 208.697 248.277 215.029 247.713 220.193L244.49 217.161Z" fill="black"/>
<path d="M247.07 220.193L262.217 209.207L263.502 211.315L248.254 221.988L247.07 220.193Z" fill="#407BFF"/>
<path opacity="0.7" d="M247.07 220.193L262.217 209.207L263.502 211.315L248.254 221.988L247.07 220.193Z" fill="white"/>
<path d="M224.067 219.535L244.89 223.211V225.256L224.694 221.988L224.067 219.535Z" fill="#407BFF"/>
<path opacity="0.7" d="M224.067 219.535L244.89 223.211V225.256L224.694 221.988L224.067 219.535Z" fill="white"/>
<path opacity="0.2" d="M232.385 182.687C232.385 182.687 230.433 189.866 223.581 191.676C224.182 188.307 225.254 185.038 226.764 181.966L232.385 182.687Z" fill="black"/>
<path opacity="0.2" d="M255.098 192.515C252.558 190.07 251.829 183.949 251.829 183.949H253.812L255.098 192.515Z" fill="black"/>
<path opacity="0.2" d="M245.314 183.518C245.314 183.738 245.226 183.95 245.07 184.106C244.914 184.261 244.703 184.349 244.483 184.349C244.262 184.349 244.051 184.261 243.895 184.106C243.739 183.95 243.652 183.738 243.652 183.518C243.652 183.298 243.739 183.087 243.895 182.931C244.051 182.775 244.262 182.687 244.483 182.687C244.703 182.687 244.914 182.775 245.07 182.931C245.226 183.087 245.314 183.298 245.314 183.518Z" fill="black"/>
<path d="M227.321 180.415C221.19 179.02 227.235 179.106 225.251 151.419C225.122 150.018 225.233 148.606 225.58 147.242C225.897 146.163 226.585 145.231 227.524 144.612C228.463 143.992 229.591 143.725 230.708 143.857C231.766 143.975 232.715 144.084 232.926 144.092C233.499 144.092 234.087 144.092 234.675 144.171C238.674 144.332 242.657 144.783 246.592 145.518C247.564 145.714 248.552 145.949 249.532 146.177C249.845 146.255 253.452 146.811 253.726 146.89C253.726 146.89 257.858 153.292 257.481 157.932C257.262 160.518 256.392 162.422 256.321 168.629C256.164 182.734 259.112 182.303 252.989 182.734L227.321 180.415Z" fill="#263238"/>
<path opacity="0.7" d="M256.321 168.613C256.164 182.719 259.112 182.296 252.989 182.719L227.321 180.407C222.272 179.271 225.486 179.122 225.659 163.605C225.659 160.941 225.659 157.83 225.431 154.201C225.384 153.308 225.322 152.375 225.251 151.419C225.119 150.022 225.228 148.611 225.573 147.25C225.888 146.168 226.577 145.233 227.517 144.612C228.458 143.991 229.588 143.723 230.708 143.857C231.774 143.975 232.723 144.084 232.926 144.084L234.683 144.171C238.684 144.331 242.669 144.776 246.607 145.503C247.587 145.706 248.575 145.926 249.555 146.161C249.869 146.239 253.475 146.796 253.757 146.882C253.757 146.882 257.881 153.277 257.505 157.908C257.27 160.502 256.392 162.406 256.321 168.613Z" fill="white"/>
<path opacity="0.1" d="M240.28 163.245C240.28 163.245 234.839 169.146 225.659 163.605C225.659 160.941 225.659 157.83 225.431 154.201C228.983 152.931 232.664 152.053 236.407 151.584L240.28 163.245Z" fill="black"/>
<path d="M252.04 150.941L257.748 147.689L259.763 153.073C259.763 153.073 256.094 155.91 252.809 153.935L252.04 150.941Z" fill="#EEC1BB"/>
<path d="M262.436 147.509L262.969 151.874L259.771 153.026L257.756 147.642L262.436 147.509Z" fill="#EEC1BB"/>
<path d="M233.185 148.12C234.707 154.184 237.108 159.992 240.312 165.361L240.469 165.635C240.303 165.389 240.093 165.176 239.849 165.008C239.567 164.797 239.239 164.655 238.892 164.594C238.544 164.532 238.188 164.554 237.85 164.655C240.32 163.362 242.256 161.043 244.318 159.06C246.756 156.529 249.202 153.88 251.609 151.223C251.928 150.891 252.358 150.685 252.817 150.645C253.276 150.604 253.735 150.732 254.107 151.004C254.48 151.276 254.741 151.673 254.842 152.123C254.944 152.573 254.879 153.044 254.659 153.449C251.932 158.336 248.709 162.929 245.039 167.155C243.753 168.71 242.173 169.996 240.39 170.94C239.372 171.44 238.204 171.539 237.116 171.218C236.029 170.898 235.102 170.18 234.518 169.208C230.213 163.332 227.19 156.617 225.643 149.499C224.859 144.46 232.103 143.12 233.154 148.12H233.185Z" fill="#EBC0BB"/>
<path d="M230.096 143.81C225.941 143.316 223.393 148.152 224.702 159.256H237.701C237.701 159.256 236.925 144.625 230.096 143.81Z" fill="#263238"/>
<path opacity="0.7" d="M230.096 143.81C225.941 143.316 223.393 148.152 224.702 159.256H237.701C237.701 159.256 236.925 144.625 230.096 143.81Z" fill="white"/>
<path d="M224.052 156.725L238.14 158.394L238.187 160.298H224.365L224.052 156.725Z" fill="#263238"/>
<path opacity="0.8" d="M224.052 156.725L238.14 158.394L238.187 160.298H224.365L224.052 156.725Z" fill="white"/>
<path d="M240.61 112.142C240.61 112.142 243.589 109.987 248.646 111.641C253.702 113.294 258.94 118.733 256.627 126.53C254.314 134.328 254.604 139.304 254.604 139.304C254.604 139.304 237.246 136.428 233.538 133.035C229.83 129.641 230.418 110.128 240.61 112.142Z" fill="#263238"/>
<path d="M237.027 130.84C237.63 134.759 238.117 141.953 235.333 144.233C238.848 146.267 242.476 148.099 246.2 149.719C248.787 146.772 247.25 145.565 247.25 145.565C243.009 144.053 243.244 140.863 244.114 137.956L237.027 130.84Z" fill="#EEC1BB"/>
<path opacity="0.2" d="M239.912 133.748L244.098 137.956C243.885 138.638 243.736 139.339 243.652 140.048C242.029 139.625 239.849 137.564 239.732 135.825C239.662 135.127 239.723 134.423 239.912 133.748Z" fill="black"/>
<path d="M237.873 120.802C236.611 127.008 235.953 129.61 238.117 133.709C241.386 139.884 249.093 140.44 252.119 134.829C254.855 129.775 256.454 120.465 251.288 116.147C250.208 115.182 248.89 114.523 247.47 114.239C246.049 113.955 244.579 114.055 243.211 114.53C241.842 115.005 240.626 115.837 239.688 116.939C238.749 118.042 238.123 119.376 237.873 120.802Z" fill="#EEC1BB"/>
<path d="M244.851 124.759C244.726 125.276 244.851 125.778 245.204 125.88C245.557 125.982 245.886 125.653 245.988 125.096C246.09 124.54 245.988 124.077 245.635 123.968C245.282 123.858 244.977 124.242 244.851 124.759Z" fill="#263238"/>
<path d="M251.186 126.585C251.053 127.102 251.186 127.604 251.531 127.714C251.876 127.823 252.221 127.479 252.315 126.93C252.409 126.381 252.315 125.911 251.97 125.809C251.625 125.707 251.311 126.068 251.186 126.585Z" fill="#263238"/>
<path d="M251.852 125.864H253.122C253.122 125.864 252.276 126.648 251.852 125.864Z" fill="#263238"/>
<path d="M248.959 127.102C249.105 128.425 249.418 129.723 249.892 130.966C249.589 131.072 249.265 131.108 248.946 131.07C248.626 131.031 248.32 130.921 248.05 130.746L248.959 127.102Z" fill="#D4827D"/>
<path d="M244.781 131.742C245.032 131.876 245.294 131.988 245.565 132.079C245.583 132.086 245.603 132.089 245.623 132.088C245.642 132.086 245.662 132.08 245.679 132.071C245.696 132.061 245.711 132.047 245.723 132.031C245.734 132.015 245.742 131.996 245.745 131.977C245.755 131.936 245.749 131.894 245.729 131.857C245.708 131.821 245.675 131.794 245.635 131.781C245.005 131.578 244.428 131.237 243.946 130.783C243.465 130.329 243.091 129.773 242.852 129.156C242.847 129.136 242.839 129.117 242.827 129.1C242.815 129.084 242.799 129.07 242.782 129.06C242.764 129.05 242.744 129.043 242.724 129.041C242.704 129.038 242.683 129.04 242.664 129.046C242.626 129.06 242.595 129.088 242.577 129.125C242.56 129.161 242.557 129.203 242.57 129.242C242.971 130.32 243.759 131.211 244.781 131.742Z" fill="#263238"/>
<path d="M244.733 121.225C244.77 121.242 244.81 121.251 244.851 121.251C244.892 121.251 244.932 121.242 244.969 121.225C245.304 121.054 245.676 120.968 246.052 120.975C246.428 120.982 246.796 121.081 247.125 121.264C247.157 121.287 247.194 121.302 247.232 121.31C247.271 121.317 247.311 121.316 247.349 121.307C247.388 121.299 247.424 121.282 247.455 121.258C247.487 121.234 247.513 121.204 247.532 121.17C247.572 121.096 247.582 121.011 247.562 120.929C247.542 120.848 247.492 120.778 247.423 120.731C247.011 120.49 246.546 120.356 246.069 120.341C245.593 120.326 245.12 120.43 244.694 120.645C244.622 120.685 244.568 120.751 244.543 120.83C244.518 120.909 244.525 120.994 244.561 121.068C244.599 121.138 244.66 121.194 244.733 121.225Z" fill="#263238"/>
<path d="M254.596 124.015C254.631 124.03 254.668 124.038 254.706 124.038C254.744 124.038 254.781 124.03 254.816 124.015C254.855 124.004 254.892 123.985 254.924 123.96C254.956 123.935 254.982 123.903 255.001 123.867C255.02 123.831 255.032 123.791 255.035 123.751C255.038 123.71 255.033 123.669 255.02 123.631C254.902 123.145 254.674 122.693 254.353 122.309C254.032 121.926 253.627 121.622 253.169 121.421C253.132 121.408 253.092 121.402 253.052 121.405C253.013 121.408 252.974 121.419 252.939 121.437C252.903 121.455 252.872 121.481 252.847 121.512C252.822 121.543 252.804 121.578 252.793 121.617C252.774 121.697 252.784 121.781 252.821 121.854C252.858 121.928 252.921 121.985 252.997 122.016C253.357 122.182 253.675 122.428 253.927 122.735C254.178 123.041 254.356 123.402 254.447 123.787C254.454 123.834 254.471 123.878 254.497 123.918C254.522 123.957 254.556 123.99 254.596 124.015Z" fill="#263238"/>
<path d="M245.517 123.991H246.788C246.788 123.991 245.941 124.791 245.517 123.991Z" fill="#263238"/>
<path d="M239.308 125.37C239.308 125.37 243.895 122.565 244.451 115.637C244.451 115.637 252.087 115.394 254.769 122.157C254.769 122.157 253.812 112.432 242.907 112.025C232.001 111.617 235.02 123.592 235.851 124.838C236.682 126.084 239.308 125.37 239.308 125.37Z" fill="#263238"/>
<path d="M234.565 125.182C234.877 126.481 235.685 127.606 236.815 128.317C238.297 129.195 239.449 127.816 239.387 126.052C239.324 124.485 238.485 122.087 236.839 121.938C235.192 121.789 234.173 123.513 234.565 125.182Z" fill="#EEC1BB"/>
</svg>
