<svg width="28" height="28" viewBox="0 0 28 28" fill="none" xmlns="http://www.w3.org/2000/svg">
<path d="M25.1183 12.6817L23.3449 10.9083C23.0416 10.605 22.7966 10.01 22.7966 9.59001V7.07001C22.7966 6.04334 21.9566 5.20334 20.9299 5.20334H18.4216C18.0016 5.20334 17.4066 4.95834 17.1033 4.65501L15.3299 2.88167C14.6066 2.15834 13.4166 2.15834 12.6933 2.88167L10.8966 4.65501C10.6049 4.95834 10.0099 5.20334 9.57828 5.20334H7.06994C6.04328 5.20334 5.20328 6.04334 5.20328 7.07001V9.57834C5.20328 9.99834 4.95828 10.5933 4.65494 10.8967L2.88161 12.67C2.15828 13.3933 2.15828 14.5833 2.88161 15.3067L4.65494 17.08C4.95828 17.3833 5.20328 17.9783 5.20328 18.3983V20.9067C5.20328 21.9333 6.04328 22.7733 7.06994 22.7733H9.57828C9.99828 22.7733 10.5933 23.0183 10.8966 23.3217L12.6699 25.095C13.3933 25.8183 14.5833 25.8183 15.3066 25.095L17.0799 23.3217C17.3833 23.0183 17.9783 22.7733 18.3983 22.7733H20.9066C21.9333 22.7733 22.7733 21.9333 22.7733 20.9067V18.3983C22.7733 17.9783 23.0183 17.3833 23.3216 17.08L25.0949 15.3067C25.8533 14.595 25.8533 13.405 25.1183 12.6817ZM9.33328 10.5C9.33328 9.85834 9.85828 9.33334 10.4999 9.33334C11.1416 9.33334 11.6666 9.85834 11.6666 10.5C11.6666 11.1417 11.1533 11.6667 10.4999 11.6667C9.85828 11.6667 9.33328 11.1417 9.33328 10.5ZM11.1183 18.1183C10.9433 18.2933 10.7216 18.375 10.4999 18.375C10.2783 18.375 10.0566 18.2933 9.88161 18.1183C9.54328 17.78 9.54328 17.22 9.88161 16.8817L16.8816 9.88167C17.2199 9.54334 17.7799 9.54334 18.1183 9.88167C18.4566 10.22 18.4566 10.78 18.1183 11.1183L11.1183 18.1183ZM17.4999 18.6667C16.8466 18.6667 16.3216 18.1417 16.3216 17.5C16.3216 16.8583 16.8466 16.3333 17.4883 16.3333C18.1299 16.3333 18.6549 16.8583 18.6549 17.5C18.6549 18.1417 18.1416 18.6667 17.4999 18.6667Z" fill="white"/>
</svg>
