<svg width="28" height="28" viewBox="0 0 28 28" fill="none" xmlns="http://www.w3.org/2000/svg">
<path d="M24.395 12.9734C24.395 18.6784 20.2533 24.0217 14.595 25.585C14.21 25.69 13.79 25.69 13.405 25.585C7.74665 24.0217 3.60498 18.6784 3.60498 12.9734V7.85169C3.60498 6.89502 4.32831 5.81002 5.22665 5.44835L11.725 2.78835C13.1833 2.19335 14.8283 2.19335 16.2866 2.78835L22.785 5.44835C23.6716 5.81002 24.4066 6.89502 24.4066 7.85169L24.395 12.9734Z" stroke="white" stroke-width="1.5" stroke-linecap="round" stroke-linejoin="round"/>
<path d="M14 14.5834C14.6188 14.5834 15.2123 14.3375 15.6499 13.8999C16.0875 13.4624 16.3333 12.8689 16.3333 12.25C16.3333 11.6312 16.0875 11.0377 15.6499 10.6001C15.2123 10.1625 14.6188 9.91669 14 9.91669C13.3811 9.91669 12.7876 10.1625 12.35 10.6001C11.9125 11.0377 11.6666 11.6312 11.6666 12.25C11.6666 12.8689 11.9125 13.4624 12.35 13.8999C12.7876 14.3375 13.3811 14.5834 14 14.5834ZM14 14.5834V18.0834" stroke="white" stroke-width="1.5" stroke-miterlimit="10" stroke-linecap="round" stroke-linejoin="round"/>
</svg>
