<svg width="28" height="28" viewBox="0 0 28 28" fill="none" xmlns="http://www.w3.org/2000/svg">
<g clip-path="url(#clip0_202_406)">
<path fill-rule="evenodd" clip-rule="evenodd" d="M14.0009 28C16.899 28 19.6786 26.8494 21.7288 24.801C23.7791 22.7527 24.9322 19.9741 24.9349 17.076C24.9389 11.178 18.6309 4.39998 15.6009 0.773976C15.4117 0.529812 15.1692 0.33218 14.8918 0.196216C14.6145 0.060252 14.3097 -0.010437 14.0009 -0.010437C13.692 -0.010437 13.3872 0.060252 13.1099 0.196216C12.8326 0.33218 12.59 0.529812 12.4009 0.773976C9.37687 4.39998 3.06287 11 3.06287 17.076C3.06605 19.9746 4.21991 22.7535 6.27089 24.8018C8.32188 26.8502 11.1022 28.0005 14.0009 28ZM17.0929 23.12C15.7848 23.9149 14.2478 24.2479 12.7279 24.0657C11.2081 23.8835 9.79337 23.1967 8.7102 22.1151C7.62702 21.0336 6.93806 19.6199 6.75362 18.1003C6.56917 16.5808 6.8999 15.0433 7.69287 13.734C7.81022 13.5611 7.96562 13.4174 8.14713 13.3139C8.32864 13.2104 8.53145 13.1499 8.73999 13.137C8.94853 13.124 9.15726 13.159 9.35017 13.2393C9.54308 13.3196 9.71504 13.4429 9.85287 13.6L17.2229 20.958C17.3814 21.0948 17.5064 21.2662 17.588 21.4591C17.6696 21.652 17.7057 21.861 17.6935 22.0701C17.6813 22.2791 17.6212 22.4826 17.5177 22.6646C17.4142 22.8467 17.2702 23.0025 17.0969 23.12H17.0929Z" fill="white"/>
</g>
<defs>
<clipPath id="clip0_202_406">
<rect width="28" height="28" fill="white"/>
</clipPath>
</defs>
</svg>
