<svg width="28" height="28" viewBox="0 0 28 28" fill="none" xmlns="http://www.w3.org/2000/svg">
<path fill-rule="evenodd" clip-rule="evenodd" d="M20.0431 5.14498C20.0431 3.59331 21.3031 2.33331 22.8548 2.33331C24.4065 2.33331 25.6665 3.59331 25.6665 5.14498C25.6665 6.69665 24.4065 7.95665 22.8548 7.95665C21.3031 7.95665 20.0431 6.69665 20.0431 5.14498ZM15.5513 17.2192L18.923 12.8687L18.8763 12.892C19.063 12.6353 19.098 12.3087 18.9697 12.017C18.8425 11.7253 18.5613 11.527 18.2592 11.5037C17.943 11.4687 17.6292 11.6087 17.4413 11.8653L14.6192 15.517L11.3863 12.9737C11.188 12.822 10.9547 12.7625 10.7213 12.787C10.4892 12.822 10.2792 12.9492 10.138 13.1358L6.68584 17.6287L6.61467 17.7337C6.41634 18.1058 6.50967 18.5842 6.85967 18.842C7.02301 18.947 7.19801 19.017 7.39634 19.017C7.66584 19.0287 7.92134 18.8875 8.08467 18.667L11.013 14.8975L14.338 17.3953L14.443 17.4642C14.8163 17.6625 15.283 17.5703 15.5513 17.2192ZM18.0247 4.41033C17.978 4.702 17.9547 4.99366 17.9547 5.28533C17.9547 7.91033 20.078 10.0325 22.6913 10.0325C22.983 10.0325 23.263 9.99866 23.5547 9.952V19.3658C23.5547 23.322 21.2213 25.667 17.2547 25.667H8.63417C4.66634 25.667 2.33301 23.322 2.33301 19.3658V10.7337C2.33301 6.767 4.66634 4.41033 8.63417 4.41033H18.0247Z" fill="white"/>
</svg>
