<svg width="28" height="28" viewBox="0 0 28 28" fill="none" xmlns="http://www.w3.org/2000/svg">
<path d="M9.09995 25.8416C6.00828 25.8416 3.48828 23.3333 3.48828 20.2299V16.9166C3.48828 16.1349 4.25828 15.6099 4.99328 15.8666C5.29661 15.9716 5.59995 16.0416 5.91495 16.0883C6.05495 16.1116 6.19495 16.1349 6.33495 16.1349C6.50995 16.1583 6.69661 16.1699 6.87161 16.1699C8.16661 16.1699 9.44995 15.6916 10.4649 14.8633C11.4333 15.6916 12.6816 16.1699 14.0116 16.1699C15.3416 16.1699 16.5783 15.7149 17.5466 14.8749C18.5499 15.6916 19.8099 16.1699 21.0933 16.1699C21.2916 16.1699 21.5016 16.1583 21.6883 16.1349C21.8283 16.1233 21.9449 16.1116 22.0733 16.0883C22.4233 16.0416 22.7383 15.9483 23.0533 15.8433C23.7766 15.5983 24.5349 16.1349 24.5349 16.8933V20.2299C24.5349 23.3216 22.0266 25.8416 18.9233 25.8416H9.09995Z" fill="white"/>
<path d="M25.6433 10.0217L25.3167 6.91832C24.85 3.53499 23.31 2.15833 20.02 2.15833H17.3833H15.7267H12.32H10.6517H7.95666C4.66666 2.15833 3.13832 3.53499 2.65999 6.95333L2.35666 10.0333C2.23999 11.235 2.56666 12.4017 3.27832 13.3117C4.12999 14.42 5.43666 15.05 6.89499 15.05C8.30666 15.05 9.65999 14.3383 10.5117 13.2067C11.27 14.3383 12.5767 15.05 14.0233 15.05C15.47 15.05 16.7417 14.3733 17.5117 13.2533C18.375 14.3617 19.705 15.05 21.105 15.05C22.5983 15.05 23.94 14.385 24.78 13.2183C25.4567 12.32 25.76 11.1883 25.6433 10.0217ZM15.75 9.01833H14.875V9.92833C14.875 10.4183 14.4783 10.8033 14 10.8033C13.5217 10.8033 13.125 10.4183 13.125 9.92833V9.01833H12.25C11.7717 9.01833 11.375 8.63333 11.375 8.14333C11.375 7.66499 11.7717 7.26833 12.25 7.26833H13.125V6.43999C13.125 5.96166 13.5217 5.56499 14 5.56499C14.4783 5.56499 14.875 5.96166 14.875 6.43999V7.26833H15.75C16.2283 7.26833 16.625 7.66499 16.625 8.14333C16.625 8.63333 16.2283 9.01833 15.75 9.01833Z" fill="white"/>
</svg>
