<svg width="28" height="28" viewBox="0 0 28 28" fill="none" xmlns="http://www.w3.org/2000/svg">
<path d="M20.4867 2.33331H7.47837C4.64337 2.33331 2.33337 4.64331 2.33337 7.47831V15.0616V15.295C2.33337 18.1416 4.64337 20.44 7.47837 20.44H11.9584C12.6 20.44 13.125 20.965 13.125 21.6066V22.7383C13.125 23.38 12.6 23.905 11.9584 23.905H9.13504C8.65671 23.905 8.26004 24.3016 8.26004 24.78C8.26004 25.2583 8.64504 25.6666 9.13504 25.6666H18.8767C19.355 25.6666 19.7517 25.27 19.7517 24.7916C19.7517 24.3133 19.355 23.9166 18.8767 23.9166H16.0534C15.4117 23.9166 14.8867 23.3916 14.8867 22.75V21.6183C14.8867 20.9766 15.4117 20.4516 16.0534 20.4516H20.4984C23.345 20.4516 25.6434 18.1416 25.6434 15.3066V15.0733V7.48998C25.6317 4.64331 23.3217 2.33331 20.4867 2.33331Z" fill="white"/>
</svg>
