<svg width="28" height="28" viewBox="0 0 28 28" fill="none" xmlns="http://www.w3.org/2000/svg">
<path d="M10.8554 2.35156C9.99685 2.60859 9.38435 3.20469 9.07263 4.07969C8.98513 4.32031 8.94685 4.58281 8.93044 5.12422L8.89763 5.85156H7.98435H7.0656L7.04373 5.36484C7.01638 4.61563 7.08748 4.64844 5.57263 4.64844C4.07966 4.64844 4.15623 4.61016 4.15623 5.36484V5.83516L3.55466 5.87344C2.0781 5.96094 1.00076 6.65 0.37732 7.90234C-0.0218988 8.70625 -0.00549254 8.33438 0.0109137 15.9852L0.02732 22.832L0.153101 23.2148C0.360914 23.8273 0.634351 24.2703 1.08826 24.7188C1.56951 25.1945 2.0781 25.4898 2.71248 25.6484C3.1281 25.7578 3.36326 25.7578 14 25.7578C24.6367 25.7578 24.8718 25.7578 25.2875 25.6484C26.4851 25.3422 27.4367 24.4398 27.8468 23.2148L27.9726 22.832L27.989 15.9852C28.0054 8.33438 28.0219 8.70625 27.6226 7.90234C26.9992 6.65 25.9219 5.96094 24.4453 5.87344L23.8437 5.83516V5.36484C23.8437 4.61016 23.9203 4.64844 22.4273 4.64844C20.9125 4.64844 20.9836 4.61563 20.9562 5.36484L20.9344 5.85156H20.0156H19.1023L19.0695 5.12422C19.0531 4.58281 19.0148 4.32031 18.9273 4.07969C18.6101 3.18828 17.9976 2.60312 17.1172 2.34609C16.789 2.24766 16.5539 2.24219 13.9726 2.24766C11.4461 2.24766 11.1508 2.25859 10.8554 2.35156ZM16.8765 3.86094C17.1281 3.98125 17.4234 4.32578 17.4945 4.57734C17.5273 4.69219 17.5547 5.02578 17.5547 5.31563V5.85156H14H10.4453V5.31563C10.4453 4.66484 10.5054 4.42969 10.7515 4.16172C11.107 3.7625 10.9867 3.77344 13.989 3.77344C16.357 3.77344 16.7125 3.78438 16.8765 3.86094ZM15.0937 9.43359C16.9804 9.76719 18.5554 10.85 19.5617 12.5016C20.8195 14.5688 20.7703 17.2922 19.4359 19.332C18.4515 20.8359 17.0297 21.8094 15.2578 22.1813C14.6234 22.318 13.3765 22.318 12.7422 22.1813C9.88201 21.5797 7.79841 19.2555 7.55232 16.3898C7.26248 13.043 9.55388 10.0406 12.857 9.43906C13.4148 9.33516 14.5304 9.33516 15.0937 9.43359Z" fill="white"/>
<path d="M12.1734 11.0523L12.0312 11.1617V12.5016V13.8359H10.7242C9.48828 13.8359 9.41172 13.8414 9.275 13.9508L9.13281 14.0602V15.7828C9.13281 16.8055 9.15469 17.5492 9.1875 17.6094C9.28594 17.7898 9.54844 17.8281 10.8062 17.8281H12.0312V19.1406C12.0312 20.382 12.0367 20.4586 12.1406 20.5625C12.2445 20.6664 12.3211 20.6719 13.9891 20.6719C15.4055 20.6719 15.75 20.6555 15.8375 20.5953C15.9359 20.5242 15.9414 20.4203 15.9688 19.157L15.9961 17.8008L17.3523 17.7734C18.6156 17.7461 18.7195 17.7406 18.7906 17.6422C18.8508 17.5547 18.8672 17.2102 18.8672 15.8211V14.1039L18.7305 13.9727L18.5992 13.8359H17.2812H15.9688V12.5016V11.1617L15.8266 11.0523C15.6844 10.943 15.6188 10.9375 14 10.9375C12.3812 10.9375 12.3156 10.943 12.1734 11.0523Z" fill="white"/>
</svg>
