<svg width="24" height="24" viewBox="0 0 24 24" fill="none" xmlns="http://www.w3.org/2000/svg">
<path d="M12.9788 3.12266L15.2088 7.59369C15.3697 7.91894 15.6834 8.14528 16.0473 8.19859L21.0425 8.92623C21.3362 8.96742 21.6011 9.12193 21.7785 9.35556C21.956 9.58919 22.0314 9.88269 21.988 10.1711C21.9535 10.4102 21.8408 10.6317 21.6669 10.8023L18.0454 14.309C17.7802 14.5569 17.6595 14.9193 17.7243 15.2733L18.6163 20.209C18.7148 20.7995 18.3209 21.3609 17.7243 21.4802C17.4801 21.5185 17.2299 21.4786 17.0107 21.3662L12.5507 19.043C12.2204 18.8761 11.8284 18.8761 11.4981 19.043L7.0381 21.3662C6.48873 21.6584 5.80239 21.4584 5.50386 20.9191C5.39075 20.7033 5.35015 20.4577 5.3879 20.2178L6.2799 15.2821C6.34469 14.928 6.22403 14.5657 5.95878 14.3178L2.33726 10.8111C2.1248 10.6051 2.00519 10.3241 2.00519 10.0308C2.00519 9.73757 2.1248 9.45653 2.33726 9.2506C2.50842 9.07645 2.73504 8.96508 2.9795 8.935L7.97471 8.20736C8.33863 8.15405 8.65237 7.92771 8.81319 7.60246L10.9629 3.12266C11.1509 2.74053 11.548 2.50089 11.9798 2.50899H12.1136C12.4893 2.55584 12.8152 2.78695 12.9788 3.12266Z" fill="#6359E7"/>
<path d="M12.0066 18.9116C11.8112 18.9103 11.6275 18.9746 11.4537 19.0623L7.00774 21.3798C6.4745 21.6485 5.79741 21.4326 5.50386 20.9192C5.39024 20.7066 5.34957 20.4637 5.3879 20.2266L6.2799 15.2997C6.3398 14.9433 6.22009 14.5806 5.95878 14.3266L2.32834 10.8199C1.89055 10.3887 1.89055 9.6906 2.32834 9.25941C2.49958 9.09022 2.72159 8.97959 2.96166 8.94381L7.97471 8.2074C8.36102 8.15133 8.63712 7.93774 8.81319 7.6025L10.991 3.07136C11.1569 2.70275 11.7149 2.44803 12.0155 2.50903C12.0066 2.8071 12.0066 18.7099 12.0066 18.9116Z" fill="#6359E7"/>
</svg>
