<svg width="28" height="28" viewBox="0 0 28 28" fill="none" xmlns="http://www.w3.org/2000/svg">
<path d="M13.93 2.57836L11.1183 9.12336H8.30665C7.83998 9.12336 7.38498 9.15836 6.94165 9.25169L8.10832 6.45169L8.15498 6.34669L8.22498 6.16003C8.25998 6.07836 8.28332 6.00836 8.31832 5.95003C9.67165 2.81169 11.1883 1.83169 13.93 2.57836Z" fill="white"/>
<path d="M21.8517 9.43834L21.8283 9.42667C21.1283 9.22834 20.4167 9.12334 19.6933 9.12334H12.39L15.015 3.02167L15.05 2.94C15.2133 2.99834 15.3883 3.08 15.5633 3.13834L18.1417 4.22334C19.5767 4.81834 20.58 5.43667 21.1983 6.18334C21.3033 6.32334 21.3967 6.45167 21.49 6.60334C21.595 6.76667 21.6767 6.93 21.7233 7.105C21.77 7.21 21.805 7.30334 21.8283 7.40834C22.0033 8.00334 22.015 8.68 21.8517 9.43834Z" fill="white"/>
<path d="M14.6067 20.6033H14.8984C15.2484 20.6033 15.54 20.2883 15.54 19.9033C15.54 19.4133 15.4 19.3433 15.0967 19.2266L14.6067 19.0516V20.6033Z" fill="white"/>
<path d="M21.3383 11.1067C20.8133 10.955 20.2649 10.8734 19.6933 10.8734H8.30661C7.51328 10.8734 6.76661 11.025 6.06661 11.3284C4.03661 12.2034 2.61328 14.2217 2.61328 16.5667V18.8417C2.61328 19.1217 2.63661 19.39 2.67161 19.67C2.92828 23.38 4.91161 25.3634 8.62161 25.6084C8.88995 25.6434 9.15828 25.6667 9.44995 25.6667H18.5499C22.8666 25.6667 25.1416 23.6134 25.3633 19.53C25.375 19.3084 25.3866 19.075 25.3866 18.8417V16.5667C25.3866 13.9884 23.6716 11.8184 21.3383 11.1067ZM15.4933 18.0834C16.0299 18.27 16.7533 18.6667 16.7533 19.9034C16.7533 20.965 15.9249 21.8167 14.8983 21.8167H14.6066V22.0734C14.6066 22.4117 14.3383 22.68 13.9999 22.68C13.6616 22.68 13.3933 22.4117 13.3933 22.0734V21.8167H13.2883C12.1683 21.8167 11.2466 20.8717 11.2466 19.705C11.2466 19.3667 11.5149 19.0984 11.8533 19.0984C12.1916 19.0984 12.4599 19.3667 12.4599 19.705C12.4599 20.195 12.8333 20.6034 13.2883 20.6034H13.3933V18.6317L12.5066 18.3167C11.9699 18.13 11.2466 17.7334 11.2466 16.4967C11.2466 15.435 12.0749 14.5834 13.1016 14.5834H13.3933V14.3267C13.3933 13.9884 13.6616 13.72 13.9999 13.72C14.3383 13.72 14.6066 13.9884 14.6066 14.3267V14.5834H14.7116C15.8316 14.5834 16.7533 15.5284 16.7533 16.695C16.7533 17.0334 16.4849 17.3017 16.1466 17.3017C15.8083 17.3017 15.5399 17.0334 15.5399 16.695C15.5399 16.205 15.1666 15.7967 14.7116 15.7967H14.6066V17.7684L15.4933 18.0834Z" fill="white"/>
<path d="M12.46 16.4967C12.46 16.9867 12.6 17.0567 12.9033 17.1734L13.3933 17.3484V15.7967H13.1016C12.74 15.7967 12.46 16.1117 12.46 16.4967Z" fill="white"/>
</svg>
