<svg width="103" height="118" viewBox="0 0 103 118" fill="none" xmlns="http://www.w3.org/2000/svg">
<g filter="url(#filter0_d_202_445)">
<path d="M0 12.88C0 8.32407 0 6.04611 0.900692 4.3122C1.6597 2.85106 2.85106 1.6597 4.3122 0.900692C6.04611 0 8.32407 0 12.88 0H90.12C94.6759 0 96.9539 0 98.6878 0.900692C100.149 1.6597 101.34 2.85106 102.099 4.3122C103 6.04611 103 8.32407 103 12.88V105.12C103 109.676 103 111.954 102.099 113.688C101.34 115.149 100.149 116.34 98.6878 117.099C96.9539 118 94.6759 118 90.12 118H12.88C8.32407 118 6.04611 118 4.3122 117.099C2.85106 116.34 1.6597 115.149 0.900692 113.688C0 111.954 0 109.676 0 105.12V12.88Z" fill="white"/>
</g>
<defs>
<filter id="filter0_d_202_445" x="-20" y="-20" width="143" height="158" filterUnits="userSpaceOnUse" color-interpolation-filters="sRGB">
<feFlood flood-opacity="0" result="BackgroundImageFix"/>
<feColorMatrix in="SourceAlpha" type="matrix" values="0 0 0 0 0 0 0 0 0 0 0 0 0 0 0 0 0 0 127 0" result="hardAlpha"/>
<feOffset/>
<feGaussianBlur stdDeviation="10"/>
<feComposite in2="hardAlpha" operator="out"/>
<feColorMatrix type="matrix" values="0 0 0 0 0 0 0 0 0 0 0 0 0 0 0 0 0 0 0.05 0"/>
<feBlend mode="normal" in2="BackgroundImageFix" result="effect1_dropShadow_202_445"/>
<feBlend mode="normal" in="SourceGraphic" in2="effect1_dropShadow_202_445" result="shape"/>
</filter>
</defs>
</svg>
