<svg width="28" height="28" viewBox="0 0 28 28" fill="none" xmlns="http://www.w3.org/2000/svg">
<path d="M9.35502 17.1788C10.3921 16.0122 12.1791 15.1667 14.0002 15.1667C15.8212 15.1667 17.6133 16.0122 18.6503 17.1788M5.83337 14C7.97382 11.8574 10.4722 10.4983 13.9957 10.4983C17.5191 10.4983 20.0263 11.8574 22.1667 14M2.33337 10.5C5.33283 7.45151 9.14581 5.83337 13.9239 5.83337C18.702 5.83337 22.6675 7.45328 25.6667 10.5M15.1667 21C15.1667 21.6444 14.6444 22.1667 14 22.1667C13.3557 22.1667 12.8334 21.6444 12.8334 21C12.8334 20.3557 13.3557 19.8334 14 19.8334C14.6444 19.8334 15.1667 20.3557 15.1667 21Z" stroke="white" stroke-width="2" stroke-linecap="round" stroke-linejoin="round"/>
</svg>
