<svg width="28" height="28" viewBox="0 0 28 28" fill="none" xmlns="http://www.w3.org/2000/svg">
<path d="M14.9516 0.10388C14.886 0.131224 14.7711 0.240599 14.6946 0.339035C14.5797 0.492161 5.64378 16.1273 5.39769 16.6086C5.25003 16.8929 5.27737 17.1008 5.49066 17.314L5.67659 17.5H9.53753C11.6594 17.5 13.3985 17.5164 13.3985 17.5437C13.3985 17.5656 13.1797 19.7258 12.9063 22.3398C12.6383 24.9539 12.4141 27.2015 12.4141 27.3273C12.4141 27.7867 12.8899 28.082 13.2617 27.8468C13.393 27.7648 14.3938 26.0258 18.0469 19.5179C21.3774 13.5898 22.6735 11.2383 22.6844 11.0906C22.7063 10.9156 22.6789 10.8554 22.5149 10.6914L22.3235 10.5H18.4078C14.9571 10.5 14.4922 10.489 14.4922 10.4179C14.4922 10.3742 14.7766 8.17575 15.1211 5.53435C15.4657 2.89294 15.75 0.66716 15.75 0.585129C15.75 0.257004 15.2688 -0.0328388 14.9516 0.10388Z" fill="white"/>
</svg>
