<svg width="28" height="28" viewBox="0 0 28 28" fill="none" xmlns="http://www.w3.org/2000/svg">
<path d="M18.83 3.45332L8.29501 6.95332C1.21335 9.32166 1.21335 13.1833 8.29501 15.54L11.4217 16.5783L12.46 19.705C14.8167 26.7867 18.69 26.7867 21.0467 19.705L24.5583 9.18166C26.1217 4.45666 23.555 1.87832 18.83 3.45332ZM19.2033 9.72999L14.77 14.1867C14.595 14.3617 14.3733 14.4433 14.1517 14.4433C13.93 14.4433 13.7083 14.3617 13.5333 14.1867C13.195 13.8483 13.195 13.2883 13.5333 12.95L17.9667 8.49332C18.305 8.15499 18.865 8.15499 19.2033 8.49332C19.5417 8.83166 19.5417 9.39166 19.2033 9.72999Z" fill="white"/>
</svg>
