<svg width="28" height="28" viewBox="0 0 28 28" fill="none" xmlns="http://www.w3.org/2000/svg">
<rect opacity="0.01" width="28" height="28" fill="white"/>
<path fill-rule="evenodd" clip-rule="evenodd" d="M3.5 5.83288C3.5 4.54447 4.53534 3.5 5.83288 3.5H10.5004C11.7889 3.5 12.8333 4.53534 12.8333 5.83288V10.5004C12.8333 11.7889 11.798 12.8333 10.5004 12.8333H5.83288C4.54447 12.8333 3.5 11.798 3.5 10.5004V5.83288ZM3.5 17.4996C3.5 16.2111 4.53534 15.1667 5.83288 15.1667H10.5004C11.7889 15.1667 12.8333 16.202 12.8333 17.4996V22.1671C12.8333 23.4555 11.798 24.5 10.5004 24.5H5.83288C4.54447 24.5 3.5 23.4647 3.5 22.1671V17.4996ZM17.4996 3.5C16.202 3.5 15.1667 4.54447 15.1667 5.83288V10.5004C15.1667 11.798 16.2111 12.8333 17.4996 12.8333H22.1671C23.4647 12.8333 24.5 11.7889 24.5 10.5004V5.83288C24.5 4.53534 23.4555 3.5 22.1671 3.5H17.4996ZM15.1667 17.4996C15.1667 16.2111 16.202 15.1667 17.4996 15.1667H22.1671C23.4555 15.1667 24.5 16.202 24.5 17.4996V22.1671C24.5 23.4555 23.4647 24.5 22.1671 24.5H17.4996C16.2111 24.5 15.1667 23.4647 15.1667 22.1671V17.4996Z" fill="white"/>
</svg>
