<svg width="28" height="28" viewBox="0 0 28 28" fill="none" xmlns="http://www.w3.org/2000/svg">
<path d="M18.8883 2.33337H9.11165C4.86498 2.33337 2.33331 4.86504 2.33331 9.11171V18.8767C2.33331 23.135 4.86498 25.6667 9.11165 25.6667H18.8766C23.1233 25.6667 25.655 23.135 25.655 18.8884V9.11171C25.6666 4.86504 23.135 2.33337 18.8883 2.33337ZM9.04165 10.6634C9.04165 9.71837 9.81165 8.93671 10.7683 8.93671C11.7133 8.93671 12.495 9.70671 12.495 10.6634C12.495 11.6084 11.725 12.39 10.7683 12.39C9.81165 12.3784 9.04165 11.6084 9.04165 10.6634ZM10.29 18.69C10.0683 18.69 9.84665 18.6084 9.67165 18.4334C9.33331 18.095 9.33331 17.5467 9.67165 17.1967L17.3133 9.55504C17.6516 9.21671 18.2116 9.21671 18.55 9.55504C18.8883 9.89337 18.8883 10.4534 18.55 10.7917L10.9083 18.4334C10.7333 18.6084 10.5116 18.69 10.29 18.69ZM18.3983 19.0634C17.4533 19.0634 16.6716 18.2934 16.6716 17.3367C16.6716 16.3917 17.4416 15.61 18.3983 15.61C19.3433 15.61 20.125 16.38 20.125 17.3367C20.125 18.2934 19.355 19.0634 18.3983 19.0634Z" fill="white"/>
</svg>
